%TF.GenerationSoftware,KiCad,Pcbnew,8.0.8-2.fc41*%
%TF.CreationDate,2025-02-22T17:19:49+01:00*%
%TF.ProjectId,Computy,436f6d70-7574-4792-9e6b-696361645f70,rev?*%
%TF.SameCoordinates,Original*%
%TF.FileFunction,Legend,Top*%
%TF.FilePolarity,Positive*%
%FSLAX46Y46*%
G04 Gerber Fmt 4.6, Leading zero omitted, Abs format (unit mm)*
G04 Created by KiCad (PCBNEW 8.0.8-2.fc41) date 2025-02-22 17:19:49*
%MOMM*%
%LPD*%
G01*
G04 APERTURE LIST*
%ADD10C,0.100000*%
%ADD11C,0.250000*%
%ADD12C,0.200000*%
%ADD13C,0.150000*%
%ADD14C,0.120000*%
%ADD15C,0.350000*%
%ADD16O,0.600000X2.100000*%
%ADD17O,0.600000X1.400000*%
G04 APERTURE END LIST*
D10*
X100680074Y-77096895D02*
X101175312Y-77096895D01*
X101175312Y-77096895D02*
X100908646Y-77401657D01*
X100908646Y-77401657D02*
X101022931Y-77401657D01*
X101022931Y-77401657D02*
X101099122Y-77439752D01*
X101099122Y-77439752D02*
X101137217Y-77477847D01*
X101137217Y-77477847D02*
X101175312Y-77554038D01*
X101175312Y-77554038D02*
X101175312Y-77744514D01*
X101175312Y-77744514D02*
X101137217Y-77820704D01*
X101137217Y-77820704D02*
X101099122Y-77858800D01*
X101099122Y-77858800D02*
X101022931Y-77896895D01*
X101022931Y-77896895D02*
X100794360Y-77896895D01*
X100794360Y-77896895D02*
X100718169Y-77858800D01*
X100718169Y-77858800D02*
X100680074Y-77820704D01*
X101403884Y-77096895D02*
X101670551Y-77896895D01*
X101670551Y-77896895D02*
X101937217Y-77096895D01*
X97675312Y-77134990D02*
X97599122Y-77096895D01*
X97599122Y-77096895D02*
X97484836Y-77096895D01*
X97484836Y-77096895D02*
X97370550Y-77134990D01*
X97370550Y-77134990D02*
X97294360Y-77211180D01*
X97294360Y-77211180D02*
X97256265Y-77287371D01*
X97256265Y-77287371D02*
X97218169Y-77439752D01*
X97218169Y-77439752D02*
X97218169Y-77554038D01*
X97218169Y-77554038D02*
X97256265Y-77706419D01*
X97256265Y-77706419D02*
X97294360Y-77782609D01*
X97294360Y-77782609D02*
X97370550Y-77858800D01*
X97370550Y-77858800D02*
X97484836Y-77896895D01*
X97484836Y-77896895D02*
X97561027Y-77896895D01*
X97561027Y-77896895D02*
X97675312Y-77858800D01*
X97675312Y-77858800D02*
X97713408Y-77820704D01*
X97713408Y-77820704D02*
X97713408Y-77554038D01*
X97713408Y-77554038D02*
X97561027Y-77554038D01*
X98056265Y-77896895D02*
X98056265Y-77096895D01*
X98056265Y-77096895D02*
X98513408Y-77896895D01*
X98513408Y-77896895D02*
X98513408Y-77096895D01*
X98894360Y-77896895D02*
X98894360Y-77096895D01*
X98894360Y-77096895D02*
X99084836Y-77096895D01*
X99084836Y-77096895D02*
X99199122Y-77134990D01*
X99199122Y-77134990D02*
X99275312Y-77211180D01*
X99275312Y-77211180D02*
X99313407Y-77287371D01*
X99313407Y-77287371D02*
X99351503Y-77439752D01*
X99351503Y-77439752D02*
X99351503Y-77554038D01*
X99351503Y-77554038D02*
X99313407Y-77706419D01*
X99313407Y-77706419D02*
X99275312Y-77782609D01*
X99275312Y-77782609D02*
X99199122Y-77858800D01*
X99199122Y-77858800D02*
X99084836Y-77896895D01*
X99084836Y-77896895D02*
X98894360Y-77896895D01*
X95175312Y-77134990D02*
X95099122Y-77096895D01*
X95099122Y-77096895D02*
X94984836Y-77096895D01*
X94984836Y-77096895D02*
X94870550Y-77134990D01*
X94870550Y-77134990D02*
X94794360Y-77211180D01*
X94794360Y-77211180D02*
X94756265Y-77287371D01*
X94756265Y-77287371D02*
X94718169Y-77439752D01*
X94718169Y-77439752D02*
X94718169Y-77554038D01*
X94718169Y-77554038D02*
X94756265Y-77706419D01*
X94756265Y-77706419D02*
X94794360Y-77782609D01*
X94794360Y-77782609D02*
X94870550Y-77858800D01*
X94870550Y-77858800D02*
X94984836Y-77896895D01*
X94984836Y-77896895D02*
X95061027Y-77896895D01*
X95061027Y-77896895D02*
X95175312Y-77858800D01*
X95175312Y-77858800D02*
X95213408Y-77820704D01*
X95213408Y-77820704D02*
X95213408Y-77554038D01*
X95213408Y-77554038D02*
X95061027Y-77554038D01*
X95556265Y-77896895D02*
X95556265Y-77096895D01*
X95556265Y-77096895D02*
X96013408Y-77896895D01*
X96013408Y-77896895D02*
X96013408Y-77096895D01*
X96394360Y-77896895D02*
X96394360Y-77096895D01*
X96394360Y-77096895D02*
X96584836Y-77096895D01*
X96584836Y-77096895D02*
X96699122Y-77134990D01*
X96699122Y-77134990D02*
X96775312Y-77211180D01*
X96775312Y-77211180D02*
X96813407Y-77287371D01*
X96813407Y-77287371D02*
X96851503Y-77439752D01*
X96851503Y-77439752D02*
X96851503Y-77554038D01*
X96851503Y-77554038D02*
X96813407Y-77706419D01*
X96813407Y-77706419D02*
X96775312Y-77782609D01*
X96775312Y-77782609D02*
X96699122Y-77858800D01*
X96699122Y-77858800D02*
X96584836Y-77896895D01*
X96584836Y-77896895D02*
X96394360Y-77896895D01*
X90675312Y-77134990D02*
X90599122Y-77096895D01*
X90599122Y-77096895D02*
X90484836Y-77096895D01*
X90484836Y-77096895D02*
X90370550Y-77134990D01*
X90370550Y-77134990D02*
X90294360Y-77211180D01*
X90294360Y-77211180D02*
X90256265Y-77287371D01*
X90256265Y-77287371D02*
X90218169Y-77439752D01*
X90218169Y-77439752D02*
X90218169Y-77554038D01*
X90218169Y-77554038D02*
X90256265Y-77706419D01*
X90256265Y-77706419D02*
X90294360Y-77782609D01*
X90294360Y-77782609D02*
X90370550Y-77858800D01*
X90370550Y-77858800D02*
X90484836Y-77896895D01*
X90484836Y-77896895D02*
X90561027Y-77896895D01*
X90561027Y-77896895D02*
X90675312Y-77858800D01*
X90675312Y-77858800D02*
X90713408Y-77820704D01*
X90713408Y-77820704D02*
X90713408Y-77554038D01*
X90713408Y-77554038D02*
X90561027Y-77554038D01*
X91056265Y-77896895D02*
X91056265Y-77096895D01*
X91056265Y-77096895D02*
X91513408Y-77896895D01*
X91513408Y-77896895D02*
X91513408Y-77096895D01*
X91894360Y-77896895D02*
X91894360Y-77096895D01*
X91894360Y-77096895D02*
X92084836Y-77096895D01*
X92084836Y-77096895D02*
X92199122Y-77134990D01*
X92199122Y-77134990D02*
X92275312Y-77211180D01*
X92275312Y-77211180D02*
X92313407Y-77287371D01*
X92313407Y-77287371D02*
X92351503Y-77439752D01*
X92351503Y-77439752D02*
X92351503Y-77554038D01*
X92351503Y-77554038D02*
X92313407Y-77706419D01*
X92313407Y-77706419D02*
X92275312Y-77782609D01*
X92275312Y-77782609D02*
X92199122Y-77858800D01*
X92199122Y-77858800D02*
X92084836Y-77896895D01*
X92084836Y-77896895D02*
X91894360Y-77896895D01*
X98000000Y-75500000D02*
X98000000Y-70500000D01*
X93000000Y-75500000D02*
X94000000Y-76000000D01*
X98000000Y-70500000D02*
X98500000Y-71500000D01*
X93000000Y-75500000D02*
X94000000Y-75000000D01*
X89000000Y-41000000D02*
X104000000Y-41000000D01*
X104000000Y-69000000D01*
X89000000Y-69000000D01*
X89000000Y-41000000D01*
X98000000Y-75500000D02*
X93000000Y-75500000D01*
X98000000Y-70500000D02*
X97500000Y-71500000D01*
X93205752Y-74791353D02*
X93872419Y-74553258D01*
X93205752Y-74315163D02*
X93872419Y-74553258D01*
X93872419Y-74553258D02*
X94110514Y-74648496D01*
X94110514Y-74648496D02*
X94158133Y-74696115D01*
X94158133Y-74696115D02*
X94205752Y-74791353D01*
D11*
X127128758Y-53553428D02*
X126628758Y-52839142D01*
X126271615Y-53553428D02*
X126271615Y-52053428D01*
X126271615Y-52053428D02*
X126843044Y-52053428D01*
X126843044Y-52053428D02*
X126985901Y-52124857D01*
X126985901Y-52124857D02*
X127057330Y-52196285D01*
X127057330Y-52196285D02*
X127128758Y-52339142D01*
X127128758Y-52339142D02*
X127128758Y-52553428D01*
X127128758Y-52553428D02*
X127057330Y-52696285D01*
X127057330Y-52696285D02*
X126985901Y-52767714D01*
X126985901Y-52767714D02*
X126843044Y-52839142D01*
X126843044Y-52839142D02*
X126271615Y-52839142D01*
X127771615Y-52767714D02*
X128271615Y-52767714D01*
X128485901Y-53553428D02*
X127771615Y-53553428D01*
X127771615Y-53553428D02*
X127771615Y-52053428D01*
X127771615Y-52053428D02*
X128485901Y-52053428D01*
X129985901Y-53410571D02*
X129914473Y-53482000D01*
X129914473Y-53482000D02*
X129700187Y-53553428D01*
X129700187Y-53553428D02*
X129557330Y-53553428D01*
X129557330Y-53553428D02*
X129343044Y-53482000D01*
X129343044Y-53482000D02*
X129200187Y-53339142D01*
X129200187Y-53339142D02*
X129128758Y-53196285D01*
X129128758Y-53196285D02*
X129057330Y-52910571D01*
X129057330Y-52910571D02*
X129057330Y-52696285D01*
X129057330Y-52696285D02*
X129128758Y-52410571D01*
X129128758Y-52410571D02*
X129200187Y-52267714D01*
X129200187Y-52267714D02*
X129343044Y-52124857D01*
X129343044Y-52124857D02*
X129557330Y-52053428D01*
X129557330Y-52053428D02*
X129700187Y-52053428D01*
X129700187Y-52053428D02*
X129914473Y-52124857D01*
X129914473Y-52124857D02*
X129985901Y-52196285D01*
D10*
X95089598Y-85372419D02*
X95089598Y-86086704D01*
X95089598Y-86086704D02*
X95041979Y-86229561D01*
X95041979Y-86229561D02*
X94946741Y-86324800D01*
X94946741Y-86324800D02*
X94803884Y-86372419D01*
X94803884Y-86372419D02*
X94708646Y-86372419D01*
X95422932Y-85372419D02*
X95994360Y-85372419D01*
X95708646Y-86372419D02*
X95708646Y-85372419D01*
X96280075Y-86086704D02*
X96756265Y-86086704D01*
X96184837Y-86372419D02*
X96518170Y-85372419D01*
X96518170Y-85372419D02*
X96851503Y-86372419D01*
X97708646Y-85420038D02*
X97613408Y-85372419D01*
X97613408Y-85372419D02*
X97470551Y-85372419D01*
X97470551Y-85372419D02*
X97327694Y-85420038D01*
X97327694Y-85420038D02*
X97232456Y-85515276D01*
X97232456Y-85515276D02*
X97184837Y-85610514D01*
X97184837Y-85610514D02*
X97137218Y-85800990D01*
X97137218Y-85800990D02*
X97137218Y-85943847D01*
X97137218Y-85943847D02*
X97184837Y-86134323D01*
X97184837Y-86134323D02*
X97232456Y-86229561D01*
X97232456Y-86229561D02*
X97327694Y-86324800D01*
X97327694Y-86324800D02*
X97470551Y-86372419D01*
X97470551Y-86372419D02*
X97565789Y-86372419D01*
X97565789Y-86372419D02*
X97708646Y-86324800D01*
X97708646Y-86324800D02*
X97756265Y-86277180D01*
X97756265Y-86277180D02*
X97756265Y-85943847D01*
X97756265Y-85943847D02*
X97565789Y-85943847D01*
D11*
X119307330Y-47374857D02*
X119164473Y-47303428D01*
X119164473Y-47303428D02*
X118950187Y-47303428D01*
X118950187Y-47303428D02*
X118735901Y-47374857D01*
X118735901Y-47374857D02*
X118593044Y-47517714D01*
X118593044Y-47517714D02*
X118521615Y-47660571D01*
X118521615Y-47660571D02*
X118450187Y-47946285D01*
X118450187Y-47946285D02*
X118450187Y-48160571D01*
X118450187Y-48160571D02*
X118521615Y-48446285D01*
X118521615Y-48446285D02*
X118593044Y-48589142D01*
X118593044Y-48589142D02*
X118735901Y-48732000D01*
X118735901Y-48732000D02*
X118950187Y-48803428D01*
X118950187Y-48803428D02*
X119093044Y-48803428D01*
X119093044Y-48803428D02*
X119307330Y-48732000D01*
X119307330Y-48732000D02*
X119378758Y-48660571D01*
X119378758Y-48660571D02*
X119378758Y-48160571D01*
X119378758Y-48160571D02*
X119093044Y-48160571D01*
X120021615Y-48803428D02*
X120021615Y-47303428D01*
X120021615Y-47303428D02*
X120593044Y-47303428D01*
X120593044Y-47303428D02*
X120735901Y-47374857D01*
X120735901Y-47374857D02*
X120807330Y-47446285D01*
X120807330Y-47446285D02*
X120878758Y-47589142D01*
X120878758Y-47589142D02*
X120878758Y-47803428D01*
X120878758Y-47803428D02*
X120807330Y-47946285D01*
X120807330Y-47946285D02*
X120735901Y-48017714D01*
X120735901Y-48017714D02*
X120593044Y-48089142D01*
X120593044Y-48089142D02*
X120021615Y-48089142D01*
X121450187Y-48732000D02*
X121664473Y-48803428D01*
X121664473Y-48803428D02*
X122021615Y-48803428D01*
X122021615Y-48803428D02*
X122164473Y-48732000D01*
X122164473Y-48732000D02*
X122235901Y-48660571D01*
X122235901Y-48660571D02*
X122307330Y-48517714D01*
X122307330Y-48517714D02*
X122307330Y-48374857D01*
X122307330Y-48374857D02*
X122235901Y-48232000D01*
X122235901Y-48232000D02*
X122164473Y-48160571D01*
X122164473Y-48160571D02*
X122021615Y-48089142D01*
X122021615Y-48089142D02*
X121735901Y-48017714D01*
X121735901Y-48017714D02*
X121593044Y-47946285D01*
X121593044Y-47946285D02*
X121521615Y-47874857D01*
X121521615Y-47874857D02*
X121450187Y-47732000D01*
X121450187Y-47732000D02*
X121450187Y-47589142D01*
X121450187Y-47589142D02*
X121521615Y-47446285D01*
X121521615Y-47446285D02*
X121593044Y-47374857D01*
X121593044Y-47374857D02*
X121735901Y-47303428D01*
X121735901Y-47303428D02*
X122093044Y-47303428D01*
X122093044Y-47303428D02*
X122307330Y-47374857D01*
D12*
X130530982Y-57914838D02*
X130435744Y-57867219D01*
X130435744Y-57867219D02*
X130292887Y-57867219D01*
X130292887Y-57867219D02*
X130150030Y-57914838D01*
X130150030Y-57914838D02*
X130054792Y-58010076D01*
X130054792Y-58010076D02*
X130007173Y-58105314D01*
X130007173Y-58105314D02*
X129959554Y-58295790D01*
X129959554Y-58295790D02*
X129959554Y-58438647D01*
X129959554Y-58438647D02*
X130007173Y-58629123D01*
X130007173Y-58629123D02*
X130054792Y-58724361D01*
X130054792Y-58724361D02*
X130150030Y-58819600D01*
X130150030Y-58819600D02*
X130292887Y-58867219D01*
X130292887Y-58867219D02*
X130388125Y-58867219D01*
X130388125Y-58867219D02*
X130530982Y-58819600D01*
X130530982Y-58819600D02*
X130578601Y-58771980D01*
X130578601Y-58771980D02*
X130578601Y-58438647D01*
X130578601Y-58438647D02*
X130388125Y-58438647D01*
X131007173Y-58867219D02*
X131007173Y-57867219D01*
X131007173Y-57867219D02*
X131578601Y-58867219D01*
X131578601Y-58867219D02*
X131578601Y-57867219D01*
X132054792Y-58867219D02*
X132054792Y-57867219D01*
X132054792Y-57867219D02*
X132292887Y-57867219D01*
X132292887Y-57867219D02*
X132435744Y-57914838D01*
X132435744Y-57914838D02*
X132530982Y-58010076D01*
X132530982Y-58010076D02*
X132578601Y-58105314D01*
X132578601Y-58105314D02*
X132626220Y-58295790D01*
X132626220Y-58295790D02*
X132626220Y-58438647D01*
X132626220Y-58438647D02*
X132578601Y-58629123D01*
X132578601Y-58629123D02*
X132530982Y-58724361D01*
X132530982Y-58724361D02*
X132435744Y-58819600D01*
X132435744Y-58819600D02*
X132292887Y-58867219D01*
X132292887Y-58867219D02*
X132054792Y-58867219D01*
D10*
X90327693Y-67372419D02*
X89756265Y-67372419D01*
X90041979Y-67372419D02*
X90041979Y-66372419D01*
X90041979Y-66372419D02*
X89946741Y-66515276D01*
X89946741Y-66515276D02*
X89851503Y-66610514D01*
X89851503Y-66610514D02*
X89756265Y-66658133D01*
D12*
X119078601Y-45867219D02*
X118745268Y-45391028D01*
X118507173Y-45867219D02*
X118507173Y-44867219D01*
X118507173Y-44867219D02*
X118888125Y-44867219D01*
X118888125Y-44867219D02*
X118983363Y-44914838D01*
X118983363Y-44914838D02*
X119030982Y-44962457D01*
X119030982Y-44962457D02*
X119078601Y-45057695D01*
X119078601Y-45057695D02*
X119078601Y-45200552D01*
X119078601Y-45200552D02*
X119030982Y-45295790D01*
X119030982Y-45295790D02*
X118983363Y-45343409D01*
X118983363Y-45343409D02*
X118888125Y-45391028D01*
X118888125Y-45391028D02*
X118507173Y-45391028D01*
X119411935Y-44867219D02*
X120078601Y-45867219D01*
X120078601Y-44867219D02*
X119411935Y-45867219D01*
D10*
X94375312Y-61277180D02*
X94327693Y-61324800D01*
X94327693Y-61324800D02*
X94184836Y-61372419D01*
X94184836Y-61372419D02*
X94089598Y-61372419D01*
X94089598Y-61372419D02*
X93946741Y-61324800D01*
X93946741Y-61324800D02*
X93851503Y-61229561D01*
X93851503Y-61229561D02*
X93803884Y-61134323D01*
X93803884Y-61134323D02*
X93756265Y-60943847D01*
X93756265Y-60943847D02*
X93756265Y-60800990D01*
X93756265Y-60800990D02*
X93803884Y-60610514D01*
X93803884Y-60610514D02*
X93851503Y-60515276D01*
X93851503Y-60515276D02*
X93946741Y-60420038D01*
X93946741Y-60420038D02*
X94089598Y-60372419D01*
X94089598Y-60372419D02*
X94184836Y-60372419D01*
X94184836Y-60372419D02*
X94327693Y-60420038D01*
X94327693Y-60420038D02*
X94375312Y-60467657D01*
X95375312Y-61277180D02*
X95327693Y-61324800D01*
X95327693Y-61324800D02*
X95184836Y-61372419D01*
X95184836Y-61372419D02*
X95089598Y-61372419D01*
X95089598Y-61372419D02*
X94946741Y-61324800D01*
X94946741Y-61324800D02*
X94851503Y-61229561D01*
X94851503Y-61229561D02*
X94803884Y-61134323D01*
X94803884Y-61134323D02*
X94756265Y-60943847D01*
X94756265Y-60943847D02*
X94756265Y-60800990D01*
X94756265Y-60800990D02*
X94803884Y-60610514D01*
X94803884Y-60610514D02*
X94851503Y-60515276D01*
X94851503Y-60515276D02*
X94946741Y-60420038D01*
X94946741Y-60420038D02*
X95089598Y-60372419D01*
X95089598Y-60372419D02*
X95184836Y-60372419D01*
X95184836Y-60372419D02*
X95327693Y-60420038D01*
X95327693Y-60420038D02*
X95375312Y-60467657D01*
X96327693Y-61372419D02*
X95756265Y-61372419D01*
X96041979Y-61372419D02*
X96041979Y-60372419D01*
X96041979Y-60372419D02*
X95946741Y-60515276D01*
X95946741Y-60515276D02*
X95851503Y-60610514D01*
X95851503Y-60610514D02*
X95756265Y-60658133D01*
X97280074Y-61372419D02*
X96708646Y-61372419D01*
X96994360Y-61372419D02*
X96994360Y-60372419D01*
X96994360Y-60372419D02*
X96899122Y-60515276D01*
X96899122Y-60515276D02*
X96803884Y-60610514D01*
X96803884Y-60610514D02*
X96708646Y-60658133D01*
X97899122Y-60372419D02*
X97994360Y-60372419D01*
X97994360Y-60372419D02*
X98089598Y-60420038D01*
X98089598Y-60420038D02*
X98137217Y-60467657D01*
X98137217Y-60467657D02*
X98184836Y-60562895D01*
X98184836Y-60562895D02*
X98232455Y-60753371D01*
X98232455Y-60753371D02*
X98232455Y-60991466D01*
X98232455Y-60991466D02*
X98184836Y-61181942D01*
X98184836Y-61181942D02*
X98137217Y-61277180D01*
X98137217Y-61277180D02*
X98089598Y-61324800D01*
X98089598Y-61324800D02*
X97994360Y-61372419D01*
X97994360Y-61372419D02*
X97899122Y-61372419D01*
X97899122Y-61372419D02*
X97803884Y-61324800D01*
X97803884Y-61324800D02*
X97756265Y-61277180D01*
X97756265Y-61277180D02*
X97708646Y-61181942D01*
X97708646Y-61181942D02*
X97661027Y-60991466D01*
X97661027Y-60991466D02*
X97661027Y-60753371D01*
X97661027Y-60753371D02*
X97708646Y-60562895D01*
X97708646Y-60562895D02*
X97756265Y-60467657D01*
X97756265Y-60467657D02*
X97803884Y-60420038D01*
X97803884Y-60420038D02*
X97899122Y-60372419D01*
X99184836Y-61372419D02*
X98613408Y-61372419D01*
X98899122Y-61372419D02*
X98899122Y-60372419D01*
X98899122Y-60372419D02*
X98803884Y-60515276D01*
X98803884Y-60515276D02*
X98708646Y-60610514D01*
X98708646Y-60610514D02*
X98613408Y-60658133D01*
X98708646Y-71372419D02*
X99232455Y-70705752D01*
X98708646Y-70705752D02*
X99232455Y-71372419D01*
X89756265Y-63967657D02*
X89803884Y-63920038D01*
X89803884Y-63920038D02*
X89899122Y-63872419D01*
X89899122Y-63872419D02*
X90137217Y-63872419D01*
X90137217Y-63872419D02*
X90232455Y-63920038D01*
X90232455Y-63920038D02*
X90280074Y-63967657D01*
X90280074Y-63967657D02*
X90327693Y-64062895D01*
X90327693Y-64062895D02*
X90327693Y-64158133D01*
X90327693Y-64158133D02*
X90280074Y-64300990D01*
X90280074Y-64300990D02*
X89708646Y-64872419D01*
X89708646Y-64872419D02*
X90327693Y-64872419D01*
D12*
X127983363Y-57867219D02*
X127507173Y-57867219D01*
X127507173Y-57867219D02*
X127459554Y-58343409D01*
X127459554Y-58343409D02*
X127507173Y-58295790D01*
X127507173Y-58295790D02*
X127602411Y-58248171D01*
X127602411Y-58248171D02*
X127840506Y-58248171D01*
X127840506Y-58248171D02*
X127935744Y-58295790D01*
X127935744Y-58295790D02*
X127983363Y-58343409D01*
X127983363Y-58343409D02*
X128030982Y-58438647D01*
X128030982Y-58438647D02*
X128030982Y-58676742D01*
X128030982Y-58676742D02*
X127983363Y-58771980D01*
X127983363Y-58771980D02*
X127935744Y-58819600D01*
X127935744Y-58819600D02*
X127840506Y-58867219D01*
X127840506Y-58867219D02*
X127602411Y-58867219D01*
X127602411Y-58867219D02*
X127507173Y-58819600D01*
X127507173Y-58819600D02*
X127459554Y-58771980D01*
X128316697Y-57867219D02*
X128650030Y-58867219D01*
X128650030Y-58867219D02*
X128983363Y-57867219D01*
X120864316Y-44867219D02*
X121435744Y-44867219D01*
X121150030Y-45867219D02*
X121150030Y-44867219D01*
X121673840Y-44867219D02*
X122340506Y-45867219D01*
X122340506Y-44867219D02*
X121673840Y-45867219D01*
X115530982Y-44914838D02*
X115435744Y-44867219D01*
X115435744Y-44867219D02*
X115292887Y-44867219D01*
X115292887Y-44867219D02*
X115150030Y-44914838D01*
X115150030Y-44914838D02*
X115054792Y-45010076D01*
X115054792Y-45010076D02*
X115007173Y-45105314D01*
X115007173Y-45105314D02*
X114959554Y-45295790D01*
X114959554Y-45295790D02*
X114959554Y-45438647D01*
X114959554Y-45438647D02*
X115007173Y-45629123D01*
X115007173Y-45629123D02*
X115054792Y-45724361D01*
X115054792Y-45724361D02*
X115150030Y-45819600D01*
X115150030Y-45819600D02*
X115292887Y-45867219D01*
X115292887Y-45867219D02*
X115388125Y-45867219D01*
X115388125Y-45867219D02*
X115530982Y-45819600D01*
X115530982Y-45819600D02*
X115578601Y-45771980D01*
X115578601Y-45771980D02*
X115578601Y-45438647D01*
X115578601Y-45438647D02*
X115388125Y-45438647D01*
X116007173Y-45867219D02*
X116007173Y-44867219D01*
X116007173Y-44867219D02*
X116578601Y-45867219D01*
X116578601Y-45867219D02*
X116578601Y-44867219D01*
X117054792Y-45867219D02*
X117054792Y-44867219D01*
X117054792Y-44867219D02*
X117292887Y-44867219D01*
X117292887Y-44867219D02*
X117435744Y-44914838D01*
X117435744Y-44914838D02*
X117530982Y-45010076D01*
X117530982Y-45010076D02*
X117578601Y-45105314D01*
X117578601Y-45105314D02*
X117626220Y-45295790D01*
X117626220Y-45295790D02*
X117626220Y-45438647D01*
X117626220Y-45438647D02*
X117578601Y-45629123D01*
X117578601Y-45629123D02*
X117530982Y-45724361D01*
X117530982Y-45724361D02*
X117435744Y-45819600D01*
X117435744Y-45819600D02*
X117292887Y-45867219D01*
X117292887Y-45867219D02*
X117054792Y-45867219D01*
X125078601Y-58867219D02*
X124745268Y-58391028D01*
X124507173Y-58867219D02*
X124507173Y-57867219D01*
X124507173Y-57867219D02*
X124888125Y-57867219D01*
X124888125Y-57867219D02*
X124983363Y-57914838D01*
X124983363Y-57914838D02*
X125030982Y-57962457D01*
X125030982Y-57962457D02*
X125078601Y-58057695D01*
X125078601Y-58057695D02*
X125078601Y-58200552D01*
X125078601Y-58200552D02*
X125030982Y-58295790D01*
X125030982Y-58295790D02*
X124983363Y-58343409D01*
X124983363Y-58343409D02*
X124888125Y-58391028D01*
X124888125Y-58391028D02*
X124507173Y-58391028D01*
X125411935Y-57867219D02*
X126078601Y-58867219D01*
X126078601Y-57867219D02*
X125411935Y-58867219D01*
X123911935Y-44867219D02*
X124530982Y-44867219D01*
X124530982Y-44867219D02*
X124197649Y-45248171D01*
X124197649Y-45248171D02*
X124340506Y-45248171D01*
X124340506Y-45248171D02*
X124435744Y-45295790D01*
X124435744Y-45295790D02*
X124483363Y-45343409D01*
X124483363Y-45343409D02*
X124530982Y-45438647D01*
X124530982Y-45438647D02*
X124530982Y-45676742D01*
X124530982Y-45676742D02*
X124483363Y-45771980D01*
X124483363Y-45771980D02*
X124435744Y-45819600D01*
X124435744Y-45819600D02*
X124340506Y-45867219D01*
X124340506Y-45867219D02*
X124054792Y-45867219D01*
X124054792Y-45867219D02*
X123959554Y-45819600D01*
X123959554Y-45819600D02*
X123911935Y-45771980D01*
X124816697Y-44867219D02*
X125150030Y-45867219D01*
X125150030Y-45867219D02*
X125483363Y-44867219D01*
D10*
X118708646Y-78372419D02*
X119327693Y-78372419D01*
X119327693Y-78372419D02*
X118994360Y-78753371D01*
X118994360Y-78753371D02*
X119137217Y-78753371D01*
X119137217Y-78753371D02*
X119232455Y-78800990D01*
X119232455Y-78800990D02*
X119280074Y-78848609D01*
X119280074Y-78848609D02*
X119327693Y-78943847D01*
X119327693Y-78943847D02*
X119327693Y-79181942D01*
X119327693Y-79181942D02*
X119280074Y-79277180D01*
X119280074Y-79277180D02*
X119232455Y-79324800D01*
X119232455Y-79324800D02*
X119137217Y-79372419D01*
X119137217Y-79372419D02*
X118851503Y-79372419D01*
X118851503Y-79372419D02*
X118756265Y-79324800D01*
X118756265Y-79324800D02*
X118708646Y-79277180D01*
X119613408Y-78372419D02*
X119946741Y-79372419D01*
X119946741Y-79372419D02*
X120280074Y-78372419D01*
X90827693Y-111420038D02*
X90732455Y-111372419D01*
X90732455Y-111372419D02*
X90589598Y-111372419D01*
X90589598Y-111372419D02*
X90446741Y-111420038D01*
X90446741Y-111420038D02*
X90351503Y-111515276D01*
X90351503Y-111515276D02*
X90303884Y-111610514D01*
X90303884Y-111610514D02*
X90256265Y-111800990D01*
X90256265Y-111800990D02*
X90256265Y-111943847D01*
X90256265Y-111943847D02*
X90303884Y-112134323D01*
X90303884Y-112134323D02*
X90351503Y-112229561D01*
X90351503Y-112229561D02*
X90446741Y-112324800D01*
X90446741Y-112324800D02*
X90589598Y-112372419D01*
X90589598Y-112372419D02*
X90684836Y-112372419D01*
X90684836Y-112372419D02*
X90827693Y-112324800D01*
X90827693Y-112324800D02*
X90875312Y-112277180D01*
X90875312Y-112277180D02*
X90875312Y-111943847D01*
X90875312Y-111943847D02*
X90684836Y-111943847D01*
X91303884Y-112372419D02*
X91303884Y-111372419D01*
X91303884Y-111372419D02*
X91875312Y-112372419D01*
X91875312Y-112372419D02*
X91875312Y-111372419D01*
X92351503Y-112372419D02*
X92351503Y-111372419D01*
X92351503Y-111372419D02*
X92589598Y-111372419D01*
X92589598Y-111372419D02*
X92732455Y-111420038D01*
X92732455Y-111420038D02*
X92827693Y-111515276D01*
X92827693Y-111515276D02*
X92875312Y-111610514D01*
X92875312Y-111610514D02*
X92922931Y-111800990D01*
X92922931Y-111800990D02*
X92922931Y-111943847D01*
X92922931Y-111943847D02*
X92875312Y-112134323D01*
X92875312Y-112134323D02*
X92827693Y-112229561D01*
X92827693Y-112229561D02*
X92732455Y-112324800D01*
X92732455Y-112324800D02*
X92589598Y-112372419D01*
X92589598Y-112372419D02*
X92351503Y-112372419D01*
X122280074Y-62872419D02*
X121803884Y-62872419D01*
X121803884Y-62872419D02*
X121756265Y-63348609D01*
X121756265Y-63348609D02*
X121803884Y-63300990D01*
X121803884Y-63300990D02*
X121899122Y-63253371D01*
X121899122Y-63253371D02*
X122137217Y-63253371D01*
X122137217Y-63253371D02*
X122232455Y-63300990D01*
X122232455Y-63300990D02*
X122280074Y-63348609D01*
X122280074Y-63348609D02*
X122327693Y-63443847D01*
X122327693Y-63443847D02*
X122327693Y-63681942D01*
X122327693Y-63681942D02*
X122280074Y-63777180D01*
X122280074Y-63777180D02*
X122232455Y-63824800D01*
X122232455Y-63824800D02*
X122137217Y-63872419D01*
X122137217Y-63872419D02*
X121899122Y-63872419D01*
X121899122Y-63872419D02*
X121803884Y-63824800D01*
X121803884Y-63824800D02*
X121756265Y-63777180D01*
X122613408Y-62872419D02*
X122946741Y-63872419D01*
X122946741Y-63872419D02*
X123280074Y-62872419D01*
X102708646Y-66372419D02*
X103375312Y-66372419D01*
X103375312Y-66372419D02*
X102946741Y-67372419D01*
X102946741Y-64300990D02*
X102851503Y-64253371D01*
X102851503Y-64253371D02*
X102803884Y-64205752D01*
X102803884Y-64205752D02*
X102756265Y-64110514D01*
X102756265Y-64110514D02*
X102756265Y-64062895D01*
X102756265Y-64062895D02*
X102803884Y-63967657D01*
X102803884Y-63967657D02*
X102851503Y-63920038D01*
X102851503Y-63920038D02*
X102946741Y-63872419D01*
X102946741Y-63872419D02*
X103137217Y-63872419D01*
X103137217Y-63872419D02*
X103232455Y-63920038D01*
X103232455Y-63920038D02*
X103280074Y-63967657D01*
X103280074Y-63967657D02*
X103327693Y-64062895D01*
X103327693Y-64062895D02*
X103327693Y-64110514D01*
X103327693Y-64110514D02*
X103280074Y-64205752D01*
X103280074Y-64205752D02*
X103232455Y-64253371D01*
X103232455Y-64253371D02*
X103137217Y-64300990D01*
X103137217Y-64300990D02*
X102946741Y-64300990D01*
X102946741Y-64300990D02*
X102851503Y-64348609D01*
X102851503Y-64348609D02*
X102803884Y-64396228D01*
X102803884Y-64396228D02*
X102756265Y-64491466D01*
X102756265Y-64491466D02*
X102756265Y-64681942D01*
X102756265Y-64681942D02*
X102803884Y-64777180D01*
X102803884Y-64777180D02*
X102851503Y-64824800D01*
X102851503Y-64824800D02*
X102946741Y-64872419D01*
X102946741Y-64872419D02*
X103137217Y-64872419D01*
X103137217Y-64872419D02*
X103232455Y-64824800D01*
X103232455Y-64824800D02*
X103280074Y-64777180D01*
X103280074Y-64777180D02*
X103327693Y-64681942D01*
X103327693Y-64681942D02*
X103327693Y-64491466D01*
X103327693Y-64491466D02*
X103280074Y-64396228D01*
X103280074Y-64396228D02*
X103232455Y-64348609D01*
X103232455Y-64348609D02*
X103137217Y-64300990D01*
D13*
X112539580Y-56142857D02*
X112587200Y-56190476D01*
X112587200Y-56190476D02*
X112634819Y-56333333D01*
X112634819Y-56333333D02*
X112634819Y-56428571D01*
X112634819Y-56428571D02*
X112587200Y-56571428D01*
X112587200Y-56571428D02*
X112491961Y-56666666D01*
X112491961Y-56666666D02*
X112396723Y-56714285D01*
X112396723Y-56714285D02*
X112206247Y-56761904D01*
X112206247Y-56761904D02*
X112063390Y-56761904D01*
X112063390Y-56761904D02*
X111872914Y-56714285D01*
X111872914Y-56714285D02*
X111777676Y-56666666D01*
X111777676Y-56666666D02*
X111682438Y-56571428D01*
X111682438Y-56571428D02*
X111634819Y-56428571D01*
X111634819Y-56428571D02*
X111634819Y-56333333D01*
X111634819Y-56333333D02*
X111682438Y-56190476D01*
X111682438Y-56190476D02*
X111730057Y-56142857D01*
X112634819Y-55190476D02*
X112634819Y-55761904D01*
X112634819Y-55476190D02*
X111634819Y-55476190D01*
X111634819Y-55476190D02*
X111777676Y-55571428D01*
X111777676Y-55571428D02*
X111872914Y-55666666D01*
X111872914Y-55666666D02*
X111920533Y-55761904D01*
X111968152Y-54333333D02*
X112634819Y-54333333D01*
X111587200Y-54571428D02*
X112301485Y-54809523D01*
X112301485Y-54809523D02*
X112301485Y-54190476D01*
X95039580Y-100142857D02*
X95087200Y-100190476D01*
X95087200Y-100190476D02*
X95134819Y-100333333D01*
X95134819Y-100333333D02*
X95134819Y-100428571D01*
X95134819Y-100428571D02*
X95087200Y-100571428D01*
X95087200Y-100571428D02*
X94991961Y-100666666D01*
X94991961Y-100666666D02*
X94896723Y-100714285D01*
X94896723Y-100714285D02*
X94706247Y-100761904D01*
X94706247Y-100761904D02*
X94563390Y-100761904D01*
X94563390Y-100761904D02*
X94372914Y-100714285D01*
X94372914Y-100714285D02*
X94277676Y-100666666D01*
X94277676Y-100666666D02*
X94182438Y-100571428D01*
X94182438Y-100571428D02*
X94134819Y-100428571D01*
X94134819Y-100428571D02*
X94134819Y-100333333D01*
X94134819Y-100333333D02*
X94182438Y-100190476D01*
X94182438Y-100190476D02*
X94230057Y-100142857D01*
X95134819Y-99190476D02*
X95134819Y-99761904D01*
X95134819Y-99476190D02*
X94134819Y-99476190D01*
X94134819Y-99476190D02*
X94277676Y-99571428D01*
X94277676Y-99571428D02*
X94372914Y-99666666D01*
X94372914Y-99666666D02*
X94420533Y-99761904D01*
X94134819Y-98857142D02*
X94134819Y-98238095D01*
X94134819Y-98238095D02*
X94515771Y-98571428D01*
X94515771Y-98571428D02*
X94515771Y-98428571D01*
X94515771Y-98428571D02*
X94563390Y-98333333D01*
X94563390Y-98333333D02*
X94611009Y-98285714D01*
X94611009Y-98285714D02*
X94706247Y-98238095D01*
X94706247Y-98238095D02*
X94944342Y-98238095D01*
X94944342Y-98238095D02*
X95039580Y-98285714D01*
X95039580Y-98285714D02*
X95087200Y-98333333D01*
X95087200Y-98333333D02*
X95134819Y-98428571D01*
X95134819Y-98428571D02*
X95134819Y-98714285D01*
X95134819Y-98714285D02*
X95087200Y-98809523D01*
X95087200Y-98809523D02*
X95039580Y-98857142D01*
X106857142Y-84679580D02*
X106809523Y-84727200D01*
X106809523Y-84727200D02*
X106666666Y-84774819D01*
X106666666Y-84774819D02*
X106571428Y-84774819D01*
X106571428Y-84774819D02*
X106428571Y-84727200D01*
X106428571Y-84727200D02*
X106333333Y-84631961D01*
X106333333Y-84631961D02*
X106285714Y-84536723D01*
X106285714Y-84536723D02*
X106238095Y-84346247D01*
X106238095Y-84346247D02*
X106238095Y-84203390D01*
X106238095Y-84203390D02*
X106285714Y-84012914D01*
X106285714Y-84012914D02*
X106333333Y-83917676D01*
X106333333Y-83917676D02*
X106428571Y-83822438D01*
X106428571Y-83822438D02*
X106571428Y-83774819D01*
X106571428Y-83774819D02*
X106666666Y-83774819D01*
X106666666Y-83774819D02*
X106809523Y-83822438D01*
X106809523Y-83822438D02*
X106857142Y-83870057D01*
X107809523Y-84774819D02*
X107238095Y-84774819D01*
X107523809Y-84774819D02*
X107523809Y-83774819D01*
X107523809Y-83774819D02*
X107428571Y-83917676D01*
X107428571Y-83917676D02*
X107333333Y-84012914D01*
X107333333Y-84012914D02*
X107238095Y-84060533D01*
X108190476Y-83870057D02*
X108238095Y-83822438D01*
X108238095Y-83822438D02*
X108333333Y-83774819D01*
X108333333Y-83774819D02*
X108571428Y-83774819D01*
X108571428Y-83774819D02*
X108666666Y-83822438D01*
X108666666Y-83822438D02*
X108714285Y-83870057D01*
X108714285Y-83870057D02*
X108761904Y-83965295D01*
X108761904Y-83965295D02*
X108761904Y-84060533D01*
X108761904Y-84060533D02*
X108714285Y-84203390D01*
X108714285Y-84203390D02*
X108142857Y-84774819D01*
X108142857Y-84774819D02*
X108761904Y-84774819D01*
X99859580Y-102642857D02*
X99907200Y-102690476D01*
X99907200Y-102690476D02*
X99954819Y-102833333D01*
X99954819Y-102833333D02*
X99954819Y-102928571D01*
X99954819Y-102928571D02*
X99907200Y-103071428D01*
X99907200Y-103071428D02*
X99811961Y-103166666D01*
X99811961Y-103166666D02*
X99716723Y-103214285D01*
X99716723Y-103214285D02*
X99526247Y-103261904D01*
X99526247Y-103261904D02*
X99383390Y-103261904D01*
X99383390Y-103261904D02*
X99192914Y-103214285D01*
X99192914Y-103214285D02*
X99097676Y-103166666D01*
X99097676Y-103166666D02*
X99002438Y-103071428D01*
X99002438Y-103071428D02*
X98954819Y-102928571D01*
X98954819Y-102928571D02*
X98954819Y-102833333D01*
X98954819Y-102833333D02*
X99002438Y-102690476D01*
X99002438Y-102690476D02*
X99050057Y-102642857D01*
X99954819Y-101690476D02*
X99954819Y-102261904D01*
X99954819Y-101976190D02*
X98954819Y-101976190D01*
X98954819Y-101976190D02*
X99097676Y-102071428D01*
X99097676Y-102071428D02*
X99192914Y-102166666D01*
X99192914Y-102166666D02*
X99240533Y-102261904D01*
X99954819Y-100738095D02*
X99954819Y-101309523D01*
X99954819Y-101023809D02*
X98954819Y-101023809D01*
X98954819Y-101023809D02*
X99097676Y-101119047D01*
X99097676Y-101119047D02*
X99192914Y-101214285D01*
X99192914Y-101214285D02*
X99240533Y-101309523D01*
X121039580Y-92666666D02*
X121087200Y-92714285D01*
X121087200Y-92714285D02*
X121134819Y-92857142D01*
X121134819Y-92857142D02*
X121134819Y-92952380D01*
X121134819Y-92952380D02*
X121087200Y-93095237D01*
X121087200Y-93095237D02*
X120991961Y-93190475D01*
X120991961Y-93190475D02*
X120896723Y-93238094D01*
X120896723Y-93238094D02*
X120706247Y-93285713D01*
X120706247Y-93285713D02*
X120563390Y-93285713D01*
X120563390Y-93285713D02*
X120372914Y-93238094D01*
X120372914Y-93238094D02*
X120277676Y-93190475D01*
X120277676Y-93190475D02*
X120182438Y-93095237D01*
X120182438Y-93095237D02*
X120134819Y-92952380D01*
X120134819Y-92952380D02*
X120134819Y-92857142D01*
X120134819Y-92857142D02*
X120182438Y-92714285D01*
X120182438Y-92714285D02*
X120230057Y-92666666D01*
X120468152Y-91809523D02*
X121134819Y-91809523D01*
X120087200Y-92047618D02*
X120801485Y-92285713D01*
X120801485Y-92285713D02*
X120801485Y-91666666D01*
X106333333Y-106539580D02*
X106285714Y-106587200D01*
X106285714Y-106587200D02*
X106142857Y-106634819D01*
X106142857Y-106634819D02*
X106047619Y-106634819D01*
X106047619Y-106634819D02*
X105904762Y-106587200D01*
X105904762Y-106587200D02*
X105809524Y-106491961D01*
X105809524Y-106491961D02*
X105761905Y-106396723D01*
X105761905Y-106396723D02*
X105714286Y-106206247D01*
X105714286Y-106206247D02*
X105714286Y-106063390D01*
X105714286Y-106063390D02*
X105761905Y-105872914D01*
X105761905Y-105872914D02*
X105809524Y-105777676D01*
X105809524Y-105777676D02*
X105904762Y-105682438D01*
X105904762Y-105682438D02*
X106047619Y-105634819D01*
X106047619Y-105634819D02*
X106142857Y-105634819D01*
X106142857Y-105634819D02*
X106285714Y-105682438D01*
X106285714Y-105682438D02*
X106333333Y-105730057D01*
X106666667Y-105634819D02*
X107285714Y-105634819D01*
X107285714Y-105634819D02*
X106952381Y-106015771D01*
X106952381Y-106015771D02*
X107095238Y-106015771D01*
X107095238Y-106015771D02*
X107190476Y-106063390D01*
X107190476Y-106063390D02*
X107238095Y-106111009D01*
X107238095Y-106111009D02*
X107285714Y-106206247D01*
X107285714Y-106206247D02*
X107285714Y-106444342D01*
X107285714Y-106444342D02*
X107238095Y-106539580D01*
X107238095Y-106539580D02*
X107190476Y-106587200D01*
X107190476Y-106587200D02*
X107095238Y-106634819D01*
X107095238Y-106634819D02*
X106809524Y-106634819D01*
X106809524Y-106634819D02*
X106714286Y-106587200D01*
X106714286Y-106587200D02*
X106666667Y-106539580D01*
X115295833Y-102679580D02*
X115248214Y-102727200D01*
X115248214Y-102727200D02*
X115105357Y-102774819D01*
X115105357Y-102774819D02*
X115010119Y-102774819D01*
X115010119Y-102774819D02*
X114867262Y-102727200D01*
X114867262Y-102727200D02*
X114772024Y-102631961D01*
X114772024Y-102631961D02*
X114724405Y-102536723D01*
X114724405Y-102536723D02*
X114676786Y-102346247D01*
X114676786Y-102346247D02*
X114676786Y-102203390D01*
X114676786Y-102203390D02*
X114724405Y-102012914D01*
X114724405Y-102012914D02*
X114772024Y-101917676D01*
X114772024Y-101917676D02*
X114867262Y-101822438D01*
X114867262Y-101822438D02*
X115010119Y-101774819D01*
X115010119Y-101774819D02*
X115105357Y-101774819D01*
X115105357Y-101774819D02*
X115248214Y-101822438D01*
X115248214Y-101822438D02*
X115295833Y-101870057D01*
X115676786Y-101870057D02*
X115724405Y-101822438D01*
X115724405Y-101822438D02*
X115819643Y-101774819D01*
X115819643Y-101774819D02*
X116057738Y-101774819D01*
X116057738Y-101774819D02*
X116152976Y-101822438D01*
X116152976Y-101822438D02*
X116200595Y-101870057D01*
X116200595Y-101870057D02*
X116248214Y-101965295D01*
X116248214Y-101965295D02*
X116248214Y-102060533D01*
X116248214Y-102060533D02*
X116200595Y-102203390D01*
X116200595Y-102203390D02*
X115629167Y-102774819D01*
X115629167Y-102774819D02*
X116248214Y-102774819D01*
X102333333Y-86179580D02*
X102285714Y-86227200D01*
X102285714Y-86227200D02*
X102142857Y-86274819D01*
X102142857Y-86274819D02*
X102047619Y-86274819D01*
X102047619Y-86274819D02*
X101904762Y-86227200D01*
X101904762Y-86227200D02*
X101809524Y-86131961D01*
X101809524Y-86131961D02*
X101761905Y-86036723D01*
X101761905Y-86036723D02*
X101714286Y-85846247D01*
X101714286Y-85846247D02*
X101714286Y-85703390D01*
X101714286Y-85703390D02*
X101761905Y-85512914D01*
X101761905Y-85512914D02*
X101809524Y-85417676D01*
X101809524Y-85417676D02*
X101904762Y-85322438D01*
X101904762Y-85322438D02*
X102047619Y-85274819D01*
X102047619Y-85274819D02*
X102142857Y-85274819D01*
X102142857Y-85274819D02*
X102285714Y-85322438D01*
X102285714Y-85322438D02*
X102333333Y-85370057D01*
X103285714Y-86274819D02*
X102714286Y-86274819D01*
X103000000Y-86274819D02*
X103000000Y-85274819D01*
X103000000Y-85274819D02*
X102904762Y-85417676D01*
X102904762Y-85417676D02*
X102809524Y-85512914D01*
X102809524Y-85512914D02*
X102714286Y-85560533D01*
X115304819Y-55666666D02*
X114828628Y-55999999D01*
X115304819Y-56238094D02*
X114304819Y-56238094D01*
X114304819Y-56238094D02*
X114304819Y-55857142D01*
X114304819Y-55857142D02*
X114352438Y-55761904D01*
X114352438Y-55761904D02*
X114400057Y-55714285D01*
X114400057Y-55714285D02*
X114495295Y-55666666D01*
X114495295Y-55666666D02*
X114638152Y-55666666D01*
X114638152Y-55666666D02*
X114733390Y-55714285D01*
X114733390Y-55714285D02*
X114781009Y-55761904D01*
X114781009Y-55761904D02*
X114828628Y-55857142D01*
X114828628Y-55857142D02*
X114828628Y-56238094D01*
X114304819Y-54761904D02*
X114304819Y-55238094D01*
X114304819Y-55238094D02*
X114781009Y-55285713D01*
X114781009Y-55285713D02*
X114733390Y-55238094D01*
X114733390Y-55238094D02*
X114685771Y-55142856D01*
X114685771Y-55142856D02*
X114685771Y-54904761D01*
X114685771Y-54904761D02*
X114733390Y-54809523D01*
X114733390Y-54809523D02*
X114781009Y-54761904D01*
X114781009Y-54761904D02*
X114876247Y-54714285D01*
X114876247Y-54714285D02*
X115114342Y-54714285D01*
X115114342Y-54714285D02*
X115209580Y-54761904D01*
X115209580Y-54761904D02*
X115257200Y-54809523D01*
X115257200Y-54809523D02*
X115304819Y-54904761D01*
X115304819Y-54904761D02*
X115304819Y-55142856D01*
X115304819Y-55142856D02*
X115257200Y-55238094D01*
X115257200Y-55238094D02*
X115209580Y-55285713D01*
X118470833Y-138104819D02*
X118137500Y-137628628D01*
X117899405Y-138104819D02*
X117899405Y-137104819D01*
X117899405Y-137104819D02*
X118280357Y-137104819D01*
X118280357Y-137104819D02*
X118375595Y-137152438D01*
X118375595Y-137152438D02*
X118423214Y-137200057D01*
X118423214Y-137200057D02*
X118470833Y-137295295D01*
X118470833Y-137295295D02*
X118470833Y-137438152D01*
X118470833Y-137438152D02*
X118423214Y-137533390D01*
X118423214Y-137533390D02*
X118375595Y-137581009D01*
X118375595Y-137581009D02*
X118280357Y-137628628D01*
X118280357Y-137628628D02*
X117899405Y-137628628D01*
X118851786Y-137200057D02*
X118899405Y-137152438D01*
X118899405Y-137152438D02*
X118994643Y-137104819D01*
X118994643Y-137104819D02*
X119232738Y-137104819D01*
X119232738Y-137104819D02*
X119327976Y-137152438D01*
X119327976Y-137152438D02*
X119375595Y-137200057D01*
X119375595Y-137200057D02*
X119423214Y-137295295D01*
X119423214Y-137295295D02*
X119423214Y-137390533D01*
X119423214Y-137390533D02*
X119375595Y-137533390D01*
X119375595Y-137533390D02*
X118804167Y-138104819D01*
X118804167Y-138104819D02*
X119423214Y-138104819D01*
X123544819Y-96097023D02*
X122544819Y-96097023D01*
X122544819Y-96097023D02*
X123259104Y-95763690D01*
X123259104Y-95763690D02*
X122544819Y-95430357D01*
X122544819Y-95430357D02*
X123544819Y-95430357D01*
X122878152Y-94525595D02*
X123544819Y-94525595D01*
X122497200Y-94763690D02*
X123211485Y-95001785D01*
X123211485Y-95001785D02*
X123211485Y-94382738D01*
X121742319Y-130238094D02*
X120742319Y-130238094D01*
X120742319Y-130238094D02*
X120742319Y-129999999D01*
X120742319Y-129999999D02*
X120789938Y-129857142D01*
X120789938Y-129857142D02*
X120885176Y-129761904D01*
X120885176Y-129761904D02*
X120980414Y-129714285D01*
X120980414Y-129714285D02*
X121170890Y-129666666D01*
X121170890Y-129666666D02*
X121313747Y-129666666D01*
X121313747Y-129666666D02*
X121504223Y-129714285D01*
X121504223Y-129714285D02*
X121599461Y-129761904D01*
X121599461Y-129761904D02*
X121694700Y-129857142D01*
X121694700Y-129857142D02*
X121742319Y-129999999D01*
X121742319Y-129999999D02*
X121742319Y-130238094D01*
X120837557Y-129285713D02*
X120789938Y-129238094D01*
X120789938Y-129238094D02*
X120742319Y-129142856D01*
X120742319Y-129142856D02*
X120742319Y-128904761D01*
X120742319Y-128904761D02*
X120789938Y-128809523D01*
X120789938Y-128809523D02*
X120837557Y-128761904D01*
X120837557Y-128761904D02*
X120932795Y-128714285D01*
X120932795Y-128714285D02*
X121028033Y-128714285D01*
X121028033Y-128714285D02*
X121170890Y-128761904D01*
X121170890Y-128761904D02*
X121742319Y-129333332D01*
X121742319Y-129333332D02*
X121742319Y-128714285D01*
X129833333Y-78317080D02*
X129785714Y-78364700D01*
X129785714Y-78364700D02*
X129642857Y-78412319D01*
X129642857Y-78412319D02*
X129547619Y-78412319D01*
X129547619Y-78412319D02*
X129404762Y-78364700D01*
X129404762Y-78364700D02*
X129309524Y-78269461D01*
X129309524Y-78269461D02*
X129261905Y-78174223D01*
X129261905Y-78174223D02*
X129214286Y-77983747D01*
X129214286Y-77983747D02*
X129214286Y-77840890D01*
X129214286Y-77840890D02*
X129261905Y-77650414D01*
X129261905Y-77650414D02*
X129309524Y-77555176D01*
X129309524Y-77555176D02*
X129404762Y-77459938D01*
X129404762Y-77459938D02*
X129547619Y-77412319D01*
X129547619Y-77412319D02*
X129642857Y-77412319D01*
X129642857Y-77412319D02*
X129785714Y-77459938D01*
X129785714Y-77459938D02*
X129833333Y-77507557D01*
X130690476Y-77412319D02*
X130500000Y-77412319D01*
X130500000Y-77412319D02*
X130404762Y-77459938D01*
X130404762Y-77459938D02*
X130357143Y-77507557D01*
X130357143Y-77507557D02*
X130261905Y-77650414D01*
X130261905Y-77650414D02*
X130214286Y-77840890D01*
X130214286Y-77840890D02*
X130214286Y-78221842D01*
X130214286Y-78221842D02*
X130261905Y-78317080D01*
X130261905Y-78317080D02*
X130309524Y-78364700D01*
X130309524Y-78364700D02*
X130404762Y-78412319D01*
X130404762Y-78412319D02*
X130595238Y-78412319D01*
X130595238Y-78412319D02*
X130690476Y-78364700D01*
X130690476Y-78364700D02*
X130738095Y-78317080D01*
X130738095Y-78317080D02*
X130785714Y-78221842D01*
X130785714Y-78221842D02*
X130785714Y-77983747D01*
X130785714Y-77983747D02*
X130738095Y-77888509D01*
X130738095Y-77888509D02*
X130690476Y-77840890D01*
X130690476Y-77840890D02*
X130595238Y-77793271D01*
X130595238Y-77793271D02*
X130404762Y-77793271D01*
X130404762Y-77793271D02*
X130309524Y-77840890D01*
X130309524Y-77840890D02*
X130261905Y-77888509D01*
X130261905Y-77888509D02*
X130214286Y-77983747D01*
X97478628Y-94976190D02*
X97954819Y-94976190D01*
X96954819Y-95309523D02*
X97478628Y-94976190D01*
X97478628Y-94976190D02*
X96954819Y-94642857D01*
X97954819Y-93785714D02*
X97954819Y-94357142D01*
X97954819Y-94071428D02*
X96954819Y-94071428D01*
X96954819Y-94071428D02*
X97097676Y-94166666D01*
X97097676Y-94166666D02*
X97192914Y-94261904D01*
X97192914Y-94261904D02*
X97240533Y-94357142D01*
X105304819Y-55666666D02*
X104828628Y-55999999D01*
X105304819Y-56238094D02*
X104304819Y-56238094D01*
X104304819Y-56238094D02*
X104304819Y-55857142D01*
X104304819Y-55857142D02*
X104352438Y-55761904D01*
X104352438Y-55761904D02*
X104400057Y-55714285D01*
X104400057Y-55714285D02*
X104495295Y-55666666D01*
X104495295Y-55666666D02*
X104638152Y-55666666D01*
X104638152Y-55666666D02*
X104733390Y-55714285D01*
X104733390Y-55714285D02*
X104781009Y-55761904D01*
X104781009Y-55761904D02*
X104828628Y-55857142D01*
X104828628Y-55857142D02*
X104828628Y-56238094D01*
X104304819Y-54809523D02*
X104304819Y-54999999D01*
X104304819Y-54999999D02*
X104352438Y-55095237D01*
X104352438Y-55095237D02*
X104400057Y-55142856D01*
X104400057Y-55142856D02*
X104542914Y-55238094D01*
X104542914Y-55238094D02*
X104733390Y-55285713D01*
X104733390Y-55285713D02*
X105114342Y-55285713D01*
X105114342Y-55285713D02*
X105209580Y-55238094D01*
X105209580Y-55238094D02*
X105257200Y-55190475D01*
X105257200Y-55190475D02*
X105304819Y-55095237D01*
X105304819Y-55095237D02*
X105304819Y-54904761D01*
X105304819Y-54904761D02*
X105257200Y-54809523D01*
X105257200Y-54809523D02*
X105209580Y-54761904D01*
X105209580Y-54761904D02*
X105114342Y-54714285D01*
X105114342Y-54714285D02*
X104876247Y-54714285D01*
X104876247Y-54714285D02*
X104781009Y-54761904D01*
X104781009Y-54761904D02*
X104733390Y-54809523D01*
X104733390Y-54809523D02*
X104685771Y-54904761D01*
X104685771Y-54904761D02*
X104685771Y-55095237D01*
X104685771Y-55095237D02*
X104733390Y-55190475D01*
X104733390Y-55190475D02*
X104781009Y-55238094D01*
X104781009Y-55238094D02*
X104876247Y-55285713D01*
X120761905Y-76834819D02*
X120761905Y-75834819D01*
X120761905Y-75834819D02*
X121000000Y-75834819D01*
X121000000Y-75834819D02*
X121142857Y-75882438D01*
X121142857Y-75882438D02*
X121238095Y-75977676D01*
X121238095Y-75977676D02*
X121285714Y-76072914D01*
X121285714Y-76072914D02*
X121333333Y-76263390D01*
X121333333Y-76263390D02*
X121333333Y-76406247D01*
X121333333Y-76406247D02*
X121285714Y-76596723D01*
X121285714Y-76596723D02*
X121238095Y-76691961D01*
X121238095Y-76691961D02*
X121142857Y-76787200D01*
X121142857Y-76787200D02*
X121000000Y-76834819D01*
X121000000Y-76834819D02*
X120761905Y-76834819D01*
X122285714Y-76834819D02*
X121714286Y-76834819D01*
X122000000Y-76834819D02*
X122000000Y-75834819D01*
X122000000Y-75834819D02*
X121904762Y-75977676D01*
X121904762Y-75977676D02*
X121809524Y-76072914D01*
X121809524Y-76072914D02*
X121714286Y-76120533D01*
X123544819Y-86797023D02*
X122544819Y-86797023D01*
X122544819Y-86797023D02*
X123259104Y-86463690D01*
X123259104Y-86463690D02*
X122544819Y-86130357D01*
X122544819Y-86130357D02*
X123544819Y-86130357D01*
X122544819Y-85225595D02*
X122544819Y-85416071D01*
X122544819Y-85416071D02*
X122592438Y-85511309D01*
X122592438Y-85511309D02*
X122640057Y-85558928D01*
X122640057Y-85558928D02*
X122782914Y-85654166D01*
X122782914Y-85654166D02*
X122973390Y-85701785D01*
X122973390Y-85701785D02*
X123354342Y-85701785D01*
X123354342Y-85701785D02*
X123449580Y-85654166D01*
X123449580Y-85654166D02*
X123497200Y-85606547D01*
X123497200Y-85606547D02*
X123544819Y-85511309D01*
X123544819Y-85511309D02*
X123544819Y-85320833D01*
X123544819Y-85320833D02*
X123497200Y-85225595D01*
X123497200Y-85225595D02*
X123449580Y-85177976D01*
X123449580Y-85177976D02*
X123354342Y-85130357D01*
X123354342Y-85130357D02*
X123116247Y-85130357D01*
X123116247Y-85130357D02*
X123021009Y-85177976D01*
X123021009Y-85177976D02*
X122973390Y-85225595D01*
X122973390Y-85225595D02*
X122925771Y-85320833D01*
X122925771Y-85320833D02*
X122925771Y-85511309D01*
X122925771Y-85511309D02*
X122973390Y-85606547D01*
X122973390Y-85606547D02*
X123021009Y-85654166D01*
X123021009Y-85654166D02*
X123116247Y-85701785D01*
X123544819Y-110047023D02*
X122544819Y-110047023D01*
X122544819Y-110047023D02*
X123259104Y-109713690D01*
X123259104Y-109713690D02*
X122544819Y-109380357D01*
X122544819Y-109380357D02*
X123544819Y-109380357D01*
X123544819Y-108380357D02*
X123544819Y-108951785D01*
X123544819Y-108666071D02*
X122544819Y-108666071D01*
X122544819Y-108666071D02*
X122687676Y-108761309D01*
X122687676Y-108761309D02*
X122782914Y-108856547D01*
X122782914Y-108856547D02*
X122830533Y-108951785D01*
X115442319Y-109166666D02*
X114966128Y-109499999D01*
X115442319Y-109738094D02*
X114442319Y-109738094D01*
X114442319Y-109738094D02*
X114442319Y-109357142D01*
X114442319Y-109357142D02*
X114489938Y-109261904D01*
X114489938Y-109261904D02*
X114537557Y-109214285D01*
X114537557Y-109214285D02*
X114632795Y-109166666D01*
X114632795Y-109166666D02*
X114775652Y-109166666D01*
X114775652Y-109166666D02*
X114870890Y-109214285D01*
X114870890Y-109214285D02*
X114918509Y-109261904D01*
X114918509Y-109261904D02*
X114966128Y-109357142D01*
X114966128Y-109357142D02*
X114966128Y-109738094D01*
X114775652Y-108309523D02*
X115442319Y-108309523D01*
X114394700Y-108547618D02*
X115108985Y-108785713D01*
X115108985Y-108785713D02*
X115108985Y-108166666D01*
X127970833Y-61179580D02*
X127923214Y-61227200D01*
X127923214Y-61227200D02*
X127780357Y-61274819D01*
X127780357Y-61274819D02*
X127685119Y-61274819D01*
X127685119Y-61274819D02*
X127542262Y-61227200D01*
X127542262Y-61227200D02*
X127447024Y-61131961D01*
X127447024Y-61131961D02*
X127399405Y-61036723D01*
X127399405Y-61036723D02*
X127351786Y-60846247D01*
X127351786Y-60846247D02*
X127351786Y-60703390D01*
X127351786Y-60703390D02*
X127399405Y-60512914D01*
X127399405Y-60512914D02*
X127447024Y-60417676D01*
X127447024Y-60417676D02*
X127542262Y-60322438D01*
X127542262Y-60322438D02*
X127685119Y-60274819D01*
X127685119Y-60274819D02*
X127780357Y-60274819D01*
X127780357Y-60274819D02*
X127923214Y-60322438D01*
X127923214Y-60322438D02*
X127970833Y-60370057D01*
X128875595Y-60274819D02*
X128399405Y-60274819D01*
X128399405Y-60274819D02*
X128351786Y-60751009D01*
X128351786Y-60751009D02*
X128399405Y-60703390D01*
X128399405Y-60703390D02*
X128494643Y-60655771D01*
X128494643Y-60655771D02*
X128732738Y-60655771D01*
X128732738Y-60655771D02*
X128827976Y-60703390D01*
X128827976Y-60703390D02*
X128875595Y-60751009D01*
X128875595Y-60751009D02*
X128923214Y-60846247D01*
X128923214Y-60846247D02*
X128923214Y-61084342D01*
X128923214Y-61084342D02*
X128875595Y-61179580D01*
X128875595Y-61179580D02*
X128827976Y-61227200D01*
X128827976Y-61227200D02*
X128732738Y-61274819D01*
X128732738Y-61274819D02*
X128494643Y-61274819D01*
X128494643Y-61274819D02*
X128399405Y-61227200D01*
X128399405Y-61227200D02*
X128351786Y-61179580D01*
X102359580Y-93666666D02*
X102407200Y-93714285D01*
X102407200Y-93714285D02*
X102454819Y-93857142D01*
X102454819Y-93857142D02*
X102454819Y-93952380D01*
X102454819Y-93952380D02*
X102407200Y-94095237D01*
X102407200Y-94095237D02*
X102311961Y-94190475D01*
X102311961Y-94190475D02*
X102216723Y-94238094D01*
X102216723Y-94238094D02*
X102026247Y-94285713D01*
X102026247Y-94285713D02*
X101883390Y-94285713D01*
X101883390Y-94285713D02*
X101692914Y-94238094D01*
X101692914Y-94238094D02*
X101597676Y-94190475D01*
X101597676Y-94190475D02*
X101502438Y-94095237D01*
X101502438Y-94095237D02*
X101454819Y-93952380D01*
X101454819Y-93952380D02*
X101454819Y-93857142D01*
X101454819Y-93857142D02*
X101502438Y-93714285D01*
X101502438Y-93714285D02*
X101550057Y-93666666D01*
X101883390Y-93095237D02*
X101835771Y-93190475D01*
X101835771Y-93190475D02*
X101788152Y-93238094D01*
X101788152Y-93238094D02*
X101692914Y-93285713D01*
X101692914Y-93285713D02*
X101645295Y-93285713D01*
X101645295Y-93285713D02*
X101550057Y-93238094D01*
X101550057Y-93238094D02*
X101502438Y-93190475D01*
X101502438Y-93190475D02*
X101454819Y-93095237D01*
X101454819Y-93095237D02*
X101454819Y-92904761D01*
X101454819Y-92904761D02*
X101502438Y-92809523D01*
X101502438Y-92809523D02*
X101550057Y-92761904D01*
X101550057Y-92761904D02*
X101645295Y-92714285D01*
X101645295Y-92714285D02*
X101692914Y-92714285D01*
X101692914Y-92714285D02*
X101788152Y-92761904D01*
X101788152Y-92761904D02*
X101835771Y-92809523D01*
X101835771Y-92809523D02*
X101883390Y-92904761D01*
X101883390Y-92904761D02*
X101883390Y-93095237D01*
X101883390Y-93095237D02*
X101931009Y-93190475D01*
X101931009Y-93190475D02*
X101978628Y-93238094D01*
X101978628Y-93238094D02*
X102073866Y-93285713D01*
X102073866Y-93285713D02*
X102264342Y-93285713D01*
X102264342Y-93285713D02*
X102359580Y-93238094D01*
X102359580Y-93238094D02*
X102407200Y-93190475D01*
X102407200Y-93190475D02*
X102454819Y-93095237D01*
X102454819Y-93095237D02*
X102454819Y-92904761D01*
X102454819Y-92904761D02*
X102407200Y-92809523D01*
X102407200Y-92809523D02*
X102359580Y-92761904D01*
X102359580Y-92761904D02*
X102264342Y-92714285D01*
X102264342Y-92714285D02*
X102073866Y-92714285D01*
X102073866Y-92714285D02*
X101978628Y-92761904D01*
X101978628Y-92761904D02*
X101931009Y-92809523D01*
X101931009Y-92809523D02*
X101883390Y-92904761D01*
X110333333Y-45677080D02*
X110285714Y-45724700D01*
X110285714Y-45724700D02*
X110142857Y-45772319D01*
X110142857Y-45772319D02*
X110047619Y-45772319D01*
X110047619Y-45772319D02*
X109904762Y-45724700D01*
X109904762Y-45724700D02*
X109809524Y-45629461D01*
X109809524Y-45629461D02*
X109761905Y-45534223D01*
X109761905Y-45534223D02*
X109714286Y-45343747D01*
X109714286Y-45343747D02*
X109714286Y-45200890D01*
X109714286Y-45200890D02*
X109761905Y-45010414D01*
X109761905Y-45010414D02*
X109809524Y-44915176D01*
X109809524Y-44915176D02*
X109904762Y-44819938D01*
X109904762Y-44819938D02*
X110047619Y-44772319D01*
X110047619Y-44772319D02*
X110142857Y-44772319D01*
X110142857Y-44772319D02*
X110285714Y-44819938D01*
X110285714Y-44819938D02*
X110333333Y-44867557D01*
X110809524Y-45772319D02*
X111000000Y-45772319D01*
X111000000Y-45772319D02*
X111095238Y-45724700D01*
X111095238Y-45724700D02*
X111142857Y-45677080D01*
X111142857Y-45677080D02*
X111238095Y-45534223D01*
X111238095Y-45534223D02*
X111285714Y-45343747D01*
X111285714Y-45343747D02*
X111285714Y-44962795D01*
X111285714Y-44962795D02*
X111238095Y-44867557D01*
X111238095Y-44867557D02*
X111190476Y-44819938D01*
X111190476Y-44819938D02*
X111095238Y-44772319D01*
X111095238Y-44772319D02*
X110904762Y-44772319D01*
X110904762Y-44772319D02*
X110809524Y-44819938D01*
X110809524Y-44819938D02*
X110761905Y-44867557D01*
X110761905Y-44867557D02*
X110714286Y-44962795D01*
X110714286Y-44962795D02*
X110714286Y-45200890D01*
X110714286Y-45200890D02*
X110761905Y-45296128D01*
X110761905Y-45296128D02*
X110809524Y-45343747D01*
X110809524Y-45343747D02*
X110904762Y-45391366D01*
X110904762Y-45391366D02*
X111095238Y-45391366D01*
X111095238Y-45391366D02*
X111190476Y-45343747D01*
X111190476Y-45343747D02*
X111238095Y-45296128D01*
X111238095Y-45296128D02*
X111285714Y-45200890D01*
X110488095Y-50204819D02*
X110488095Y-51014342D01*
X110488095Y-51014342D02*
X110535714Y-51109580D01*
X110535714Y-51109580D02*
X110583333Y-51157200D01*
X110583333Y-51157200D02*
X110678571Y-51204819D01*
X110678571Y-51204819D02*
X110869047Y-51204819D01*
X110869047Y-51204819D02*
X110964285Y-51157200D01*
X110964285Y-51157200D02*
X111011904Y-51109580D01*
X111011904Y-51109580D02*
X111059523Y-51014342D01*
X111059523Y-51014342D02*
X111059523Y-50204819D01*
X111440476Y-50204819D02*
X112059523Y-50204819D01*
X112059523Y-50204819D02*
X111726190Y-50585771D01*
X111726190Y-50585771D02*
X111869047Y-50585771D01*
X111869047Y-50585771D02*
X111964285Y-50633390D01*
X111964285Y-50633390D02*
X112011904Y-50681009D01*
X112011904Y-50681009D02*
X112059523Y-50776247D01*
X112059523Y-50776247D02*
X112059523Y-51014342D01*
X112059523Y-51014342D02*
X112011904Y-51109580D01*
X112011904Y-51109580D02*
X111964285Y-51157200D01*
X111964285Y-51157200D02*
X111869047Y-51204819D01*
X111869047Y-51204819D02*
X111583333Y-51204819D01*
X111583333Y-51204819D02*
X111488095Y-51157200D01*
X111488095Y-51157200D02*
X111440476Y-51109580D01*
X123544819Y-100747023D02*
X122544819Y-100747023D01*
X122544819Y-100747023D02*
X123259104Y-100413690D01*
X123259104Y-100413690D02*
X122544819Y-100080357D01*
X122544819Y-100080357D02*
X123544819Y-100080357D01*
X122544819Y-99699404D02*
X122544819Y-99080357D01*
X122544819Y-99080357D02*
X122925771Y-99413690D01*
X122925771Y-99413690D02*
X122925771Y-99270833D01*
X122925771Y-99270833D02*
X122973390Y-99175595D01*
X122973390Y-99175595D02*
X123021009Y-99127976D01*
X123021009Y-99127976D02*
X123116247Y-99080357D01*
X123116247Y-99080357D02*
X123354342Y-99080357D01*
X123354342Y-99080357D02*
X123449580Y-99127976D01*
X123449580Y-99127976D02*
X123497200Y-99175595D01*
X123497200Y-99175595D02*
X123544819Y-99270833D01*
X123544819Y-99270833D02*
X123544819Y-99556547D01*
X123544819Y-99556547D02*
X123497200Y-99651785D01*
X123497200Y-99651785D02*
X123449580Y-99699404D01*
X123544819Y-105397023D02*
X122544819Y-105397023D01*
X122544819Y-105397023D02*
X123259104Y-105063690D01*
X123259104Y-105063690D02*
X122544819Y-104730357D01*
X122544819Y-104730357D02*
X123544819Y-104730357D01*
X122640057Y-104301785D02*
X122592438Y-104254166D01*
X122592438Y-104254166D02*
X122544819Y-104158928D01*
X122544819Y-104158928D02*
X122544819Y-103920833D01*
X122544819Y-103920833D02*
X122592438Y-103825595D01*
X122592438Y-103825595D02*
X122640057Y-103777976D01*
X122640057Y-103777976D02*
X122735295Y-103730357D01*
X122735295Y-103730357D02*
X122830533Y-103730357D01*
X122830533Y-103730357D02*
X122973390Y-103777976D01*
X122973390Y-103777976D02*
X123544819Y-104349404D01*
X123544819Y-104349404D02*
X123544819Y-103730357D01*
X110942319Y-109166666D02*
X110466128Y-109499999D01*
X110942319Y-109738094D02*
X109942319Y-109738094D01*
X109942319Y-109738094D02*
X109942319Y-109357142D01*
X109942319Y-109357142D02*
X109989938Y-109261904D01*
X109989938Y-109261904D02*
X110037557Y-109214285D01*
X110037557Y-109214285D02*
X110132795Y-109166666D01*
X110132795Y-109166666D02*
X110275652Y-109166666D01*
X110275652Y-109166666D02*
X110370890Y-109214285D01*
X110370890Y-109214285D02*
X110418509Y-109261904D01*
X110418509Y-109261904D02*
X110466128Y-109357142D01*
X110466128Y-109357142D02*
X110466128Y-109738094D01*
X109942319Y-108833332D02*
X109942319Y-108214285D01*
X109942319Y-108214285D02*
X110323271Y-108547618D01*
X110323271Y-108547618D02*
X110323271Y-108404761D01*
X110323271Y-108404761D02*
X110370890Y-108309523D01*
X110370890Y-108309523D02*
X110418509Y-108261904D01*
X110418509Y-108261904D02*
X110513747Y-108214285D01*
X110513747Y-108214285D02*
X110751842Y-108214285D01*
X110751842Y-108214285D02*
X110847080Y-108261904D01*
X110847080Y-108261904D02*
X110894700Y-108309523D01*
X110894700Y-108309523D02*
X110942319Y-108404761D01*
X110942319Y-108404761D02*
X110942319Y-108690475D01*
X110942319Y-108690475D02*
X110894700Y-108785713D01*
X110894700Y-108785713D02*
X110847080Y-108833332D01*
X91177080Y-93666666D02*
X91224700Y-93714285D01*
X91224700Y-93714285D02*
X91272319Y-93857142D01*
X91272319Y-93857142D02*
X91272319Y-93952380D01*
X91272319Y-93952380D02*
X91224700Y-94095237D01*
X91224700Y-94095237D02*
X91129461Y-94190475D01*
X91129461Y-94190475D02*
X91034223Y-94238094D01*
X91034223Y-94238094D02*
X90843747Y-94285713D01*
X90843747Y-94285713D02*
X90700890Y-94285713D01*
X90700890Y-94285713D02*
X90510414Y-94238094D01*
X90510414Y-94238094D02*
X90415176Y-94190475D01*
X90415176Y-94190475D02*
X90319938Y-94095237D01*
X90319938Y-94095237D02*
X90272319Y-93952380D01*
X90272319Y-93952380D02*
X90272319Y-93857142D01*
X90272319Y-93857142D02*
X90319938Y-93714285D01*
X90319938Y-93714285D02*
X90367557Y-93666666D01*
X90272319Y-93333332D02*
X90272319Y-92666666D01*
X90272319Y-92666666D02*
X91272319Y-93095237D01*
X123544819Y-91447023D02*
X122544819Y-91447023D01*
X122544819Y-91447023D02*
X123259104Y-91113690D01*
X123259104Y-91113690D02*
X122544819Y-90780357D01*
X122544819Y-90780357D02*
X123544819Y-90780357D01*
X122544819Y-89827976D02*
X122544819Y-90304166D01*
X122544819Y-90304166D02*
X123021009Y-90351785D01*
X123021009Y-90351785D02*
X122973390Y-90304166D01*
X122973390Y-90304166D02*
X122925771Y-90208928D01*
X122925771Y-90208928D02*
X122925771Y-89970833D01*
X122925771Y-89970833D02*
X122973390Y-89875595D01*
X122973390Y-89875595D02*
X123021009Y-89827976D01*
X123021009Y-89827976D02*
X123116247Y-89780357D01*
X123116247Y-89780357D02*
X123354342Y-89780357D01*
X123354342Y-89780357D02*
X123449580Y-89827976D01*
X123449580Y-89827976D02*
X123497200Y-89875595D01*
X123497200Y-89875595D02*
X123544819Y-89970833D01*
X123544819Y-89970833D02*
X123544819Y-90208928D01*
X123544819Y-90208928D02*
X123497200Y-90304166D01*
X123497200Y-90304166D02*
X123449580Y-90351785D01*
X101470833Y-130804819D02*
X101137500Y-130328628D01*
X100899405Y-130804819D02*
X100899405Y-129804819D01*
X100899405Y-129804819D02*
X101280357Y-129804819D01*
X101280357Y-129804819D02*
X101375595Y-129852438D01*
X101375595Y-129852438D02*
X101423214Y-129900057D01*
X101423214Y-129900057D02*
X101470833Y-129995295D01*
X101470833Y-129995295D02*
X101470833Y-130138152D01*
X101470833Y-130138152D02*
X101423214Y-130233390D01*
X101423214Y-130233390D02*
X101375595Y-130281009D01*
X101375595Y-130281009D02*
X101280357Y-130328628D01*
X101280357Y-130328628D02*
X100899405Y-130328628D01*
X102423214Y-130804819D02*
X101851786Y-130804819D01*
X102137500Y-130804819D02*
X102137500Y-129804819D01*
X102137500Y-129804819D02*
X102042262Y-129947676D01*
X102042262Y-129947676D02*
X101947024Y-130042914D01*
X101947024Y-130042914D02*
X101851786Y-130090533D01*
X105859580Y-47142857D02*
X105907200Y-47190476D01*
X105907200Y-47190476D02*
X105954819Y-47333333D01*
X105954819Y-47333333D02*
X105954819Y-47428571D01*
X105954819Y-47428571D02*
X105907200Y-47571428D01*
X105907200Y-47571428D02*
X105811961Y-47666666D01*
X105811961Y-47666666D02*
X105716723Y-47714285D01*
X105716723Y-47714285D02*
X105526247Y-47761904D01*
X105526247Y-47761904D02*
X105383390Y-47761904D01*
X105383390Y-47761904D02*
X105192914Y-47714285D01*
X105192914Y-47714285D02*
X105097676Y-47666666D01*
X105097676Y-47666666D02*
X105002438Y-47571428D01*
X105002438Y-47571428D02*
X104954819Y-47428571D01*
X104954819Y-47428571D02*
X104954819Y-47333333D01*
X104954819Y-47333333D02*
X105002438Y-47190476D01*
X105002438Y-47190476D02*
X105050057Y-47142857D01*
X105954819Y-46190476D02*
X105954819Y-46761904D01*
X105954819Y-46476190D02*
X104954819Y-46476190D01*
X104954819Y-46476190D02*
X105097676Y-46571428D01*
X105097676Y-46571428D02*
X105192914Y-46666666D01*
X105192914Y-46666666D02*
X105240533Y-46761904D01*
X104954819Y-45571428D02*
X104954819Y-45476190D01*
X104954819Y-45476190D02*
X105002438Y-45380952D01*
X105002438Y-45380952D02*
X105050057Y-45333333D01*
X105050057Y-45333333D02*
X105145295Y-45285714D01*
X105145295Y-45285714D02*
X105335771Y-45238095D01*
X105335771Y-45238095D02*
X105573866Y-45238095D01*
X105573866Y-45238095D02*
X105764342Y-45285714D01*
X105764342Y-45285714D02*
X105859580Y-45333333D01*
X105859580Y-45333333D02*
X105907200Y-45380952D01*
X105907200Y-45380952D02*
X105954819Y-45476190D01*
X105954819Y-45476190D02*
X105954819Y-45571428D01*
X105954819Y-45571428D02*
X105907200Y-45666666D01*
X105907200Y-45666666D02*
X105859580Y-45714285D01*
X105859580Y-45714285D02*
X105764342Y-45761904D01*
X105764342Y-45761904D02*
X105573866Y-45809523D01*
X105573866Y-45809523D02*
X105335771Y-45809523D01*
X105335771Y-45809523D02*
X105145295Y-45761904D01*
X105145295Y-45761904D02*
X105050057Y-45714285D01*
X105050057Y-45714285D02*
X105002438Y-45666666D01*
X105002438Y-45666666D02*
X104954819Y-45571428D01*
X102859819Y-81828333D02*
X103574104Y-81828333D01*
X103574104Y-81828333D02*
X103716961Y-81875952D01*
X103716961Y-81875952D02*
X103812200Y-81971190D01*
X103812200Y-81971190D02*
X103859819Y-82114047D01*
X103859819Y-82114047D02*
X103859819Y-82209285D01*
X102955057Y-81399761D02*
X102907438Y-81352142D01*
X102907438Y-81352142D02*
X102859819Y-81256904D01*
X102859819Y-81256904D02*
X102859819Y-81018809D01*
X102859819Y-81018809D02*
X102907438Y-80923571D01*
X102907438Y-80923571D02*
X102955057Y-80875952D01*
X102955057Y-80875952D02*
X103050295Y-80828333D01*
X103050295Y-80828333D02*
X103145533Y-80828333D01*
X103145533Y-80828333D02*
X103288390Y-80875952D01*
X103288390Y-80875952D02*
X103859819Y-81447380D01*
X103859819Y-81447380D02*
X103859819Y-80828333D01*
D14*
%TO.C,J1*%
X105917500Y-136400000D02*
X105917500Y-137300000D01*
X106037500Y-133320000D02*
X114987500Y-133320000D01*
X115107500Y-136400000D02*
X115107500Y-137300000D01*
%TO.C,C14*%
X111235000Y-55238748D02*
X111235000Y-55761252D01*
X109765000Y-55238748D02*
X109765000Y-55761252D01*
%TO.C,C13*%
X93735000Y-99238748D02*
X93735000Y-99761252D01*
X92265000Y-99238748D02*
X92265000Y-99761252D01*
%TO.C,C12*%
X107238748Y-85265000D02*
X107761252Y-85265000D01*
X107238748Y-86735000D02*
X107761252Y-86735000D01*
%TO.C,C11*%
X98765000Y-98761252D02*
X98765000Y-98238748D01*
X100235000Y-98761252D02*
X100235000Y-98238748D01*
%TO.C,C4*%
X119735000Y-92238748D02*
X119735000Y-92761252D01*
X118265000Y-92238748D02*
X118265000Y-92761252D01*
%TO.C,C3*%
X106761252Y-105235000D02*
X106238748Y-105235000D01*
X106761252Y-103765000D02*
X106238748Y-103765000D01*
%TO.C,C2*%
X115201248Y-103265000D02*
X115723752Y-103265000D01*
X115201248Y-104735000D02*
X115723752Y-104735000D01*
%TO.C,C1*%
X102238748Y-86765000D02*
X102761252Y-86765000D01*
X102238748Y-88235000D02*
X102761252Y-88235000D01*
%TO.C,R5*%
X115765000Y-55727064D02*
X115765000Y-55272936D01*
X117235000Y-55727064D02*
X117235000Y-55272936D01*
%TO.C,R2*%
X118864564Y-135265000D02*
X118410436Y-135265000D01*
X118864564Y-136735000D02*
X118410436Y-136735000D01*
%TO.C,M4*%
X124090000Y-96617500D02*
X124090000Y-95287500D01*
X125420000Y-96617500D02*
X124090000Y-96617500D01*
X126690000Y-93957500D02*
X131830000Y-93957500D01*
X126690000Y-96617500D02*
X126690000Y-93957500D01*
X126690000Y-96617500D02*
X131830000Y-96617500D01*
X131830000Y-96617500D02*
X131830000Y-93957500D01*
%TO.C,TP3*%
X90800000Y-113800000D02*
X92200000Y-113800000D01*
X90800000Y-115200000D02*
X90800000Y-113800000D01*
X92200000Y-113800000D02*
X92200000Y-115200000D01*
X92200000Y-115200000D02*
X90800000Y-115200000D01*
%TO.C,D2*%
X118677500Y-127640000D02*
X118677500Y-130500000D01*
X120597500Y-127640000D02*
X118677500Y-127640000D01*
X120597500Y-130500000D02*
X120597500Y-127640000D01*
%TO.C,TP2*%
X118800000Y-79800000D02*
X120200000Y-79800000D01*
X118800000Y-81200000D02*
X118800000Y-79800000D01*
X120200000Y-79800000D02*
X120200000Y-81200000D01*
X120200000Y-81200000D02*
X118800000Y-81200000D01*
%TO.C,C6*%
X129738748Y-78902500D02*
X130261252Y-78902500D01*
X129738748Y-80372500D02*
X130261252Y-80372500D01*
%TO.C,Y1*%
X92237500Y-90800000D02*
X92237500Y-96200000D01*
X96737500Y-90800000D02*
X92237500Y-90800000D01*
%TO.C,R6*%
X105765000Y-55727064D02*
X105765000Y-55272936D01*
X107235000Y-55727064D02*
X107235000Y-55272936D01*
%TO.C,D1*%
X120500000Y-75690000D02*
X123360000Y-75690000D01*
X123360000Y-73770000D02*
X120500000Y-73770000D01*
X123360000Y-75690000D02*
X123360000Y-73770000D01*
%TO.C,U1*%
X105077500Y-90000000D02*
X105077500Y-90950000D01*
X105077500Y-100220000D02*
X105077500Y-99270000D01*
X106027500Y-90000000D02*
X105077500Y-90000000D01*
X106027500Y-100220000D02*
X105077500Y-100220000D01*
X114347500Y-90000000D02*
X115297500Y-90000000D01*
X114347500Y-100220000D02*
X115297500Y-100220000D01*
X115297500Y-90000000D02*
X115297500Y-90950000D01*
X115297500Y-100220000D02*
X115297500Y-99270000D01*
X104462500Y-90950000D02*
X104122500Y-90480000D01*
X104802500Y-90480000D01*
X104462500Y-90950000D01*
G36*
X104462500Y-90950000D02*
G01*
X104122500Y-90480000D01*
X104802500Y-90480000D01*
X104462500Y-90950000D01*
G37*
%TO.C,U2*%
X124590000Y-69787500D02*
X124590000Y-73547500D01*
X124590000Y-73547500D02*
X125850000Y-73547500D01*
X131410000Y-69787500D02*
X131410000Y-73547500D01*
X131410000Y-73547500D02*
X130150000Y-73547500D01*
X131640000Y-68747500D02*
X131310000Y-68507500D01*
X131640000Y-68267500D01*
X131640000Y-68747500D01*
G36*
X131640000Y-68747500D02*
G01*
X131310000Y-68507500D01*
X131640000Y-68267500D01*
X131640000Y-68747500D01*
G37*
%TO.C,M6*%
X124090000Y-87317500D02*
X124090000Y-85987500D01*
X125420000Y-87317500D02*
X124090000Y-87317500D01*
X126690000Y-84657500D02*
X131830000Y-84657500D01*
X126690000Y-87317500D02*
X126690000Y-84657500D01*
X126690000Y-87317500D02*
X131830000Y-87317500D01*
X131830000Y-87317500D02*
X131830000Y-84657500D01*
%TO.C,M1*%
X124090000Y-110567500D02*
X124090000Y-109237500D01*
X125420000Y-110567500D02*
X124090000Y-110567500D01*
X126690000Y-107907500D02*
X131830000Y-107907500D01*
X126690000Y-110567500D02*
X126690000Y-107907500D01*
X126690000Y-110567500D02*
X131830000Y-110567500D01*
X131830000Y-110567500D02*
X131830000Y-107907500D01*
%TO.C,R4*%
X115902500Y-109227064D02*
X115902500Y-108772936D01*
X117372500Y-109227064D02*
X117372500Y-108772936D01*
%TO.C,C5*%
X127876248Y-61765000D02*
X128398752Y-61765000D01*
X127876248Y-63235000D02*
X128398752Y-63235000D01*
%TO.C,C8*%
X99402500Y-93761252D02*
X99402500Y-93238748D01*
X100872500Y-93761252D02*
X100872500Y-93238748D01*
%TO.C,C9*%
X110761252Y-42902500D02*
X110238748Y-42902500D01*
X110761252Y-44372500D02*
X110238748Y-44372500D01*
%TO.C,U3*%
X108540000Y-52310000D02*
X108540000Y-52050000D01*
X108540000Y-52310000D02*
X108800000Y-52310000D01*
X113960000Y-48290000D02*
X113700000Y-48290000D01*
X113960000Y-48290000D02*
X113960000Y-48550000D01*
X113960000Y-52310000D02*
X113700000Y-52310000D01*
X113960000Y-52310000D02*
X113960000Y-52050000D01*
D10*
X108540000Y-48290000D02*
X108180000Y-48290000D01*
X108540000Y-47930000D01*
X108540000Y-48290000D01*
G36*
X108540000Y-48290000D02*
G01*
X108180000Y-48290000D01*
X108540000Y-47930000D01*
X108540000Y-48290000D01*
G37*
D14*
%TO.C,M3*%
X124090000Y-101267500D02*
X124090000Y-99937500D01*
X125420000Y-101267500D02*
X124090000Y-101267500D01*
X126690000Y-98607500D02*
X131830000Y-98607500D01*
X126690000Y-101267500D02*
X126690000Y-98607500D01*
X126690000Y-101267500D02*
X131830000Y-101267500D01*
X131830000Y-101267500D02*
X131830000Y-98607500D01*
%TO.C,J4*%
X115487500Y-41695000D02*
X115487500Y-44355000D01*
X123167500Y-41695000D02*
X115487500Y-41695000D01*
X123167500Y-41695000D02*
X123167500Y-44355000D01*
X123167500Y-44355000D02*
X115487500Y-44355000D01*
X125767500Y-43025000D02*
X125767500Y-44355000D01*
X125767500Y-44355000D02*
X124437500Y-44355000D01*
%TO.C,M2*%
X124090000Y-105917500D02*
X124090000Y-104587500D01*
X125420000Y-105917500D02*
X124090000Y-105917500D01*
X126690000Y-103257500D02*
X131830000Y-103257500D01*
X126690000Y-105917500D02*
X126690000Y-103257500D01*
X126690000Y-105917500D02*
X131830000Y-105917500D01*
X131830000Y-105917500D02*
X131830000Y-103257500D01*
%TO.C,R3*%
X111402500Y-109227064D02*
X111402500Y-108772936D01*
X112872500Y-109227064D02*
X112872500Y-108772936D01*
%TO.C,TP1*%
X121800000Y-64500000D02*
X123200000Y-64500000D01*
X121800000Y-65900000D02*
X121800000Y-64500000D01*
X123200000Y-64500000D02*
X123200000Y-65900000D01*
X123200000Y-65900000D02*
X121800000Y-65900000D01*
%TO.C,J3*%
X124252500Y-54695000D02*
X124252500Y-57355000D01*
X129392500Y-54695000D02*
X124252500Y-54695000D01*
X129392500Y-54695000D02*
X129392500Y-57355000D01*
X129392500Y-57355000D02*
X124252500Y-57355000D01*
X131992500Y-56025000D02*
X131992500Y-57355000D01*
X131992500Y-57355000D02*
X130662500Y-57355000D01*
%TO.C,C7*%
X88402500Y-93238748D02*
X88402500Y-93761252D01*
X89872500Y-93238748D02*
X89872500Y-93761252D01*
%TO.C,M5*%
X124090000Y-91967500D02*
X124090000Y-90637500D01*
X125420000Y-91967500D02*
X124090000Y-91967500D01*
X126690000Y-89307500D02*
X131830000Y-89307500D01*
X126690000Y-91967500D02*
X126690000Y-89307500D01*
X126690000Y-91967500D02*
X131830000Y-91967500D01*
X131830000Y-91967500D02*
X131830000Y-89307500D01*
%TO.C,R1*%
X101410436Y-131265000D02*
X101864564Y-131265000D01*
X101410436Y-132735000D02*
X101864564Y-132735000D01*
%TO.C,C10*%
X104765000Y-50013748D02*
X104765000Y-50536252D01*
X106235000Y-50013748D02*
X106235000Y-50536252D01*
%TO.C,J2*%
X102405000Y-84095000D02*
X89585000Y-84095000D01*
X102405000Y-81495000D02*
X102405000Y-84095000D01*
X102405000Y-78895000D02*
X102405000Y-80225000D01*
X101075000Y-78895000D02*
X102405000Y-78895000D01*
X99805000Y-81495000D02*
X102405000Y-81495000D01*
X99805000Y-78895000D02*
X99805000Y-81495000D01*
X99805000Y-78895000D02*
X89585000Y-78895000D01*
X89585000Y-78895000D02*
X89585000Y-84095000D01*
%TD*%
D15*
X107537500Y-134000000D03*
X108387500Y-134000000D03*
X109237500Y-134000000D03*
X110087500Y-134000000D03*
X110937500Y-134000000D03*
X111787500Y-134000000D03*
X112637500Y-134000000D03*
X113487500Y-134000000D03*
X113487500Y-135350000D03*
X112637500Y-135350000D03*
X111787500Y-135350000D03*
X110937500Y-135350000D03*
X110087500Y-135350000D03*
X109237500Y-135350000D03*
X108387500Y-135350000D03*
X107537500Y-135350000D03*
D16*
X106187500Y-134980000D03*
D17*
X106187500Y-138360000D03*
D16*
X114837500Y-134980000D03*
D17*
X114837500Y-138360000D03*
D15*
X125420000Y-95287500D03*
X127960000Y-95287500D03*
X130500000Y-95287500D03*
X91500000Y-114500000D03*
X119500000Y-80500000D03*
X130000000Y-135137500D03*
X90000000Y-45137500D03*
X125420000Y-85987500D03*
X127960000Y-85987500D03*
X130500000Y-85987500D03*
X125420000Y-109237500D03*
X127960000Y-109237500D03*
X130500000Y-109237500D03*
X130000000Y-45137500D03*
X125420000Y-99937500D03*
X127960000Y-99937500D03*
X130500000Y-99937500D03*
X124437500Y-43025000D03*
X121897500Y-43025000D03*
X119357500Y-43025000D03*
X116817500Y-43025000D03*
X125420000Y-104587500D03*
X127960000Y-104587500D03*
X130500000Y-104587500D03*
X122500000Y-65200000D03*
X130662500Y-56025000D03*
X128122500Y-56025000D03*
X125582500Y-56025000D03*
X125420000Y-90637500D03*
X127960000Y-90637500D03*
X130500000Y-90637500D03*
X90000000Y-135137500D03*
X90915000Y-82765000D03*
X90915000Y-80225000D03*
X93455000Y-82765000D03*
X93455000Y-80225000D03*
X95995000Y-82765000D03*
X95995000Y-80225000D03*
X98535000Y-82765000D03*
X98535000Y-80225000D03*
X101075000Y-82765000D03*
X101075000Y-80225000D03*
X92700000Y-67040000D03*
X92700000Y-64500000D03*
X95240000Y-67040000D03*
X95240000Y-64500000D03*
X97780000Y-67040000D03*
X97780000Y-64500000D03*
X100320000Y-67040000D03*
X100320000Y-64500000D03*
M02*
