M48
; DRILL file {KiCad 8.0.8-2.fc41} date 2025-02-22T17:19:49+0100
; FORMAT={-:-/ absolute / metric / decimal}
; #@! TF.CreationDate,2025-02-22T17:19:49+01:00
; #@! TF.GenerationSoftware,Kicad,Pcbnew,8.0.8-2.fc41
; #@! TF.FileFunction,Plated,1,2,PTH
FMAT,2
METRIC
; #@! TA.AperFunction,Plated,PTH,ViaDrill
T1C0.300
; #@! TA.AperFunction,Plated,PTH,ComponentDrill
T2C0.400
; #@! TA.AperFunction,Plated,PTH,ComponentDrill
T3C0.500
; #@! TA.AperFunction,Plated,PTH,ComponentDrill
T4C0.600
; #@! TA.AperFunction,Plated,PTH,ComponentDrill
T5C1.000
%
G90
G05
T1
X91.138Y-95.0
X94.0Y-101.5
X97.637Y-93.0
X98.0Y-98.5
X99.137Y-132.0
X103.5Y-89.0
X104.5Y-103.5
X107.5Y-49.412
X107.5Y-92.5
X108.637Y-84.0
X109.037Y-104.5
X109.637Y-99.0
X109.637Y-110.0
X110.137Y-95.5
X110.75Y-58.887
X111.0Y-49.637
X111.312Y-98.174
X113.5Y-81.5
X113.5Y-82.5
X116.637Y-111.5
X117.137Y-88.5
X118.0Y-74.73
X118.0Y-105.0
X121.137Y-136.0
X121.637Y-93.0
X122.0Y-70.138
X125.637Y-80.0
X129.0Y-65.638
X131.0Y-77.138
T2
X107.537Y-134.0
X107.537Y-135.35
X108.387Y-134.0
X108.387Y-135.35
X109.237Y-134.0
X109.237Y-135.35
X110.087Y-134.0
X110.087Y-135.35
X110.938Y-134.0
X110.938Y-135.35
X111.787Y-134.0
X111.787Y-135.35
X112.637Y-134.0
X112.637Y-135.35
X113.487Y-134.0
X113.487Y-135.35
T3
X91.5Y-114.5
X119.5Y-80.5
X122.5Y-65.2
T5
X90.915Y-80.225
X90.915Y-82.765
X92.7Y-64.5
X92.7Y-67.04
X93.455Y-80.225
X93.455Y-82.765
X95.24Y-64.5
X95.24Y-67.04
X95.995Y-80.225
X95.995Y-82.765
X97.78Y-64.5
X97.78Y-67.04
X98.535Y-80.225
X98.535Y-82.765
X100.32Y-64.5
X100.32Y-67.04
X101.075Y-80.225
X101.075Y-82.765
X116.817Y-43.025
X119.357Y-43.025
X121.897Y-43.025
X124.438Y-43.025
X125.42Y-85.987
X125.42Y-90.638
X125.42Y-95.287
X125.42Y-99.938
X125.42Y-104.587
X125.42Y-109.237
X125.582Y-56.025
X127.96Y-85.987
X127.96Y-90.638
X127.96Y-95.287
X127.96Y-99.938
X127.96Y-104.587
X127.96Y-109.237
X128.123Y-56.025
X130.5Y-85.987
X130.5Y-90.638
X130.5Y-95.287
X130.5Y-99.938
X130.5Y-104.587
X130.5Y-109.237
X130.662Y-56.025
T4
G00X106.188Y-134.23
M15
G01X106.188Y-135.73
M16
G05
G00X106.188Y-137.96
M15
G01X106.188Y-138.76
M16
G05
G00X114.837Y-134.23
M15
G01X114.837Y-135.73
M16
G05
G00X114.837Y-137.96
M15
G01X114.837Y-138.76
M16
G05
M30
