%TF.GenerationSoftware,KiCad,Pcbnew,8.0.8-2.fc41*%
%TF.CreationDate,2025-02-22T17:19:49+01:00*%
%TF.ProjectId,Computy,436f6d70-7574-4792-9e6b-696361645f70,rev?*%
%TF.SameCoordinates,Original*%
%TF.FileFunction,Profile,NP*%
%FSLAX46Y46*%
G04 Gerber Fmt 4.6, Leading zero omitted, Abs format (unit mm)*
G04 Created by KiCad (PCBNEW 8.0.8-2.fc41) date 2025-02-22 17:19:49*
%MOMM*%
%LPD*%
G01*
G04 APERTURE LIST*
%TA.AperFunction,Profile*%
%ADD10C,0.050000*%
%TD*%
%ADD11C,0.350000*%
%ADD12O,0.600000X2.100000*%
%ADD13O,0.600000X1.400000*%
G04 APERTURE END LIST*
D10*
X130000000Y-40137500D02*
G75*
G02*
X135000000Y-45137500I0J-5000000D01*
G01*
X135000000Y-135137500D02*
G75*
G02*
X130000000Y-140137500I-5000000J0D01*
G01*
X90000000Y-140137500D02*
G75*
G02*
X85000000Y-135137500I0J5000000D01*
G01*
X85000000Y-45137500D02*
G75*
G02*
X90000000Y-40137500I5000000J0D01*
G01*
X90000000Y-40137500D02*
X130000000Y-40137500D01*
X135000000Y-45137500D02*
X135000000Y-135137500D01*
X85000000Y-135137500D02*
X85000000Y-45137500D01*
X130000000Y-140137500D02*
X90000000Y-140137500D01*
D11*
X107537500Y-134000000D03*
X108387500Y-134000000D03*
X109237500Y-134000000D03*
X110087500Y-134000000D03*
X110937500Y-134000000D03*
X111787500Y-134000000D03*
X112637500Y-134000000D03*
X113487500Y-134000000D03*
X113487500Y-135350000D03*
X112637500Y-135350000D03*
X111787500Y-135350000D03*
X110937500Y-135350000D03*
X110087500Y-135350000D03*
X109237500Y-135350000D03*
X108387500Y-135350000D03*
X107537500Y-135350000D03*
D12*
X106187500Y-134980000D03*
D13*
X106187500Y-138360000D03*
D12*
X114837500Y-134980000D03*
D13*
X114837500Y-138360000D03*
D11*
X125420000Y-95287500D03*
X127960000Y-95287500D03*
X130500000Y-95287500D03*
X91500000Y-114500000D03*
X119500000Y-80500000D03*
X130000000Y-135137500D03*
X90000000Y-45137500D03*
X125420000Y-85987500D03*
X127960000Y-85987500D03*
X130500000Y-85987500D03*
X125420000Y-109237500D03*
X127960000Y-109237500D03*
X130500000Y-109237500D03*
X130000000Y-45137500D03*
X125420000Y-99937500D03*
X127960000Y-99937500D03*
X130500000Y-99937500D03*
X124437500Y-43025000D03*
X121897500Y-43025000D03*
X119357500Y-43025000D03*
X116817500Y-43025000D03*
X125420000Y-104587500D03*
X127960000Y-104587500D03*
X130500000Y-104587500D03*
X122500000Y-65200000D03*
X130662500Y-56025000D03*
X128122500Y-56025000D03*
X125582500Y-56025000D03*
X125420000Y-90637500D03*
X127960000Y-90637500D03*
X130500000Y-90637500D03*
X90000000Y-135137500D03*
X90915000Y-82765000D03*
X90915000Y-80225000D03*
X93455000Y-82765000D03*
X93455000Y-80225000D03*
X95995000Y-82765000D03*
X95995000Y-80225000D03*
X98535000Y-82765000D03*
X98535000Y-80225000D03*
X101075000Y-82765000D03*
X101075000Y-80225000D03*
X92700000Y-67040000D03*
X92700000Y-64500000D03*
X95240000Y-67040000D03*
X95240000Y-64500000D03*
X97780000Y-67040000D03*
X97780000Y-64500000D03*
X100320000Y-67040000D03*
X100320000Y-64500000D03*
M02*
