M48
METRIC,TZ
T1C0.300
T2C0.400
T3C0.500
T4C0.600
T5C1.000
%
G90
G05
T1
X91138Y-95000
X94000Y-101500
X97637Y-93000
X98000Y-98500
X99137Y-132000
X103500Y-89000
X104500Y-103500
X107500Y-49412
X107500Y-92500
X108638Y-84000
X109038Y-104500
X109638Y-99000
X109638Y-110000
X110138Y-95500
X110750Y-58888
X111000Y-49637
X111312Y-98174
X113500Y-81500
X113500Y-82500
X116638Y-111500
X117138Y-88500
X118000Y-74730
X118000Y-105000
X121138Y-136000
X121638Y-93000
X122000Y-70138
X125638Y-80000
X129000Y-65638
X131000Y-77138
T2
X107538Y-134000
X107538Y-135350
X108388Y-134000
X108388Y-135350
X109238Y-134000
X109238Y-135350
X110088Y-134000
X110088Y-135350
X110938Y-134000
X110938Y-135350
X111788Y-134000
X111788Y-135350
X112638Y-134000
X112638Y-135350
X113488Y-134000
X113488Y-135350
T3
X91500Y-114500
X119500Y-80500
X122500Y-65200
T5
X90915Y-80225
X90915Y-82765
X92700Y-64500
X92700Y-67040
X93455Y-80225
X93455Y-82765
X95240Y-64500
X95240Y-67040
X95995Y-80225
X95995Y-82765
X97780Y-64500
X97780Y-67040
X98535Y-80225
X98535Y-82765
X100320Y-64500
X100320Y-67040
X101075Y-80225
X101075Y-82765
X116818Y-43025
X119357Y-43025
X121898Y-43025
X124438Y-43025
X125420Y-85988
X125420Y-90638
X125420Y-95288
X125420Y-99938
X125420Y-104588
X125420Y-109238
X125583Y-56025
X127960Y-85988
X127960Y-90638
X127960Y-95288
X127960Y-99938
X127960Y-104588
X127960Y-109238
X128123Y-56025
X130500Y-85988
X130500Y-90638
X130500Y-95288
X130500Y-99938
X130500Y-104588
X130500Y-109238
X130663Y-56025
T4
G00X106188Y-134230
M15
G01X106188Y-135730
M16
G05
G00X106188Y-137960
M15
G01X106188Y-138760
M16
G05
G00X114838Y-134230
M15
G01X114838Y-135730
M16
G05
G00X114838Y-137960
M15
G01X114838Y-138760
M16
G05
M30
